<svg id="svg" version="1.1" xmlns="http://www.w3.org/2000/svg" xmlns:xlink="http://www.w3.org/1999/xlink" width="400" height="133.33333333333334" viewBox="0, 0, 400,133.33333333333334"><g id="svgg"><path id="path0" d="M0.000 66.667 L 0.000 133.333 200.000 133.333 L 400.000 133.333 400.000 66.667 L 400.000 0.000 200.000 0.000 L 0.000 0.000 0.000 66.667 M74.552 12.578 C 77.283 13.877,76.957 17.745,74.033 18.741 C 73.165 19.037,72.400 19.077,72.250 18.833 C 72.193 18.742,72.013 18.667,71.849 18.667 C 71.395 18.667,70.178 17.715,69.976 17.203 C 69.878 16.954,69.731 16.620,69.649 16.461 C 68.422 14.073,71.902 11.317,74.552 12.578 M93.925 16.248 C 97.414 19.107,93.641 24.196,89.922 21.647 C 87.531 20.008,88.121 16.698,91.000 15.601 C 91.741 15.319,93.179 15.637,93.925 16.248 M56.418 18.167 C 59.657 20.169,57.922 24.889,54.127 24.399 C 51.419 24.049,50.274 20.769,52.180 18.820 C 52.442 18.552,52.724 18.333,52.807 18.333 C 52.891 18.333,53.049 18.225,53.158 18.093 C 53.576 17.591,55.557 17.636,56.418 18.167 M75.125 23.026 C 76.531 23.895,76.636 25.808,75.342 26.963 C 73.803 28.336,71.167 27.140,71.167 25.070 C 71.167 23.197,73.474 22.006,75.125 23.026 M89.609 26.379 C 92.020 28.009,89.977 31.943,87.359 30.715 C 86.255 30.197,85.795 29.491,85.795 28.315 C 85.795 26.350,87.949 25.257,89.609 26.379 M108.536 27.440 C 110.105 28.234,110.847 30.162,110.183 31.713 C 108.705 35.159,103.667 34.131,103.667 30.384 C 103.667 27.866,106.269 26.293,108.536 27.440 M62.890 28.142 C 64.679 29.811,63.698 32.417,61.281 32.417 C 59.699 32.417,58.833 31.594,58.833 30.091 C 58.833 27.919,61.352 26.708,62.890 28.142 M41.961 30.975 C 42.120 31.054,42.514 31.243,42.836 31.397 C 44.359 32.125,44.947 34.681,43.918 36.109 C 41.700 39.189,37.299 37.526,37.776 33.787 C 38.008 31.967,40.530 30.273,41.961 30.975 M100.000 34.588 C 102.617 35.310,102.048 39.500,99.333 39.500 C 96.494 39.500,95.847 35.539,98.529 34.576 C 99.086 34.376,99.234 34.377,100.000 34.588 M53.097 37.844 C 54.787 39.423,53.938 42.093,51.683 42.286 C 49.096 42.508,48.021 39.118,50.219 37.669 C 50.970 37.174,52.478 37.266,53.097 37.844 M211.864 39.522 C 212.018 39.602,212.304 39.667,212.499 39.667 C 214.282 39.667,221.130 43.508,220.699 44.267 C 220.400 44.793,216.108 49.167,215.890 49.167 C 215.754 49.167,215.292 48.875,214.863 48.519 C 210.016 44.493,203.574 45.908,201.290 51.500 C 199.824 55.090,199.528 62.654,200.663 67.500 C 201.809 72.385,206.015 74.543,210.840 72.720 C 212.073 72.254,212.000 72.563,212.000 67.818 L 212.000 63.509 209.628 63.463 L 207.255 63.417 207.131 62.750 C 206.850 61.249,206.457 58.368,206.438 57.667 L 206.417 56.917 213.667 56.917 L 220.917 56.917 220.917 66.657 L 220.917 76.398 219.408 77.180 C 217.284 78.282,214.153 79.503,213.456 79.501 C 213.294 79.500,213.032 79.569,212.873 79.654 C 211.354 80.461,204.634 80.454,202.000 79.643 C 200.826 79.281,198.667 78.419,198.667 78.313 C 198.667 78.252,198.479 78.156,198.250 78.098 C 198.021 78.041,197.833 77.920,197.833 77.830 C 197.833 77.740,197.744 77.667,197.636 77.667 C 197.152 77.667,194.892 75.464,193.810 73.938 C 192.600 72.232,191.167 68.893,191.167 67.781 C 191.167 67.565,191.113 67.335,191.047 67.270 C 190.130 66.352,190.100 55.125,191.010 52.917 C 191.085 52.733,191.199 52.323,191.261 52.005 C 191.324 51.688,191.432 51.313,191.501 51.172 C 191.796 50.569,192.167 49.644,192.167 49.509 C 192.167 49.288,193.526 46.925,193.690 46.861 C 193.769 46.831,193.833 46.729,193.833 46.635 C 193.833 45.300,198.166 41.918,201.917 40.325 C 202.775 39.960,205.744 39.347,207.000 39.275 C 208.373 39.196,211.544 39.357,211.864 39.522 M143.536 40.357 C 143.571 40.462,143.497 41.381,143.372 42.399 C 143.248 43.417,143.089 44.779,143.019 45.426 C 142.950 46.073,142.838 46.691,142.770 46.801 C 142.678 46.951,140.764 47.000,135.073 47.000 L 127.500 47.000 127.500 51.998 L 127.500 56.996 134.208 57.040 L 140.917 57.083 140.964 60.167 C 140.990 61.862,140.970 63.419,140.919 63.625 L 140.827 64.000 134.163 64.000 L 127.500 64.000 127.500 71.566 C 127.500 78.311,127.471 79.142,127.236 79.232 C 126.892 79.364,118.441 79.364,118.097 79.232 C 117.749 79.099,117.687 40.713,118.033 40.367 C 118.315 40.085,143.442 40.076,143.536 40.357 M246.857 48.510 C 247.807 48.607,248.655 48.757,248.742 48.843 C 248.829 48.929,249.040 49.000,249.211 49.000 C 250.132 49.000,253.067 50.715,254.333 51.993 C 255.858 53.532,257.667 56.495,257.667 57.454 C 257.667 57.626,257.738 57.838,257.825 57.925 C 258.269 58.371,258.718 62.669,258.576 65.125 L 258.467 67.000 248.881 67.000 L 239.295 67.000 239.413 67.943 C 239.478 68.462,239.590 69.006,239.662 69.152 C 239.734 69.297,239.965 69.787,240.175 70.240 C 241.872 73.912,247.045 74.600,252.468 71.875 C 253.243 71.485,253.894 71.167,253.915 71.167 C 253.935 71.167,254.266 71.615,254.650 72.162 C 255.034 72.710,255.442 73.254,255.556 73.371 C 255.669 73.488,255.925 73.846,256.125 74.167 C 256.324 74.487,256.677 74.968,256.910 75.234 C 257.528 75.941,257.446 76.234,256.426 76.965 C 252.625 79.686,247.334 80.858,242.386 80.074 C 241.486 79.932,240.620 79.744,240.461 79.657 C 240.301 79.571,240.051 79.500,239.905 79.500 C 238.111 79.500,234.073 76.494,232.442 73.946 C 230.617 71.092,229.682 67.100,229.919 63.167 C 230.031 61.316,230.485 59.019,230.992 57.750 C 231.411 56.699,232.253 55.015,232.575 54.583 C 232.780 54.308,232.979 53.996,233.016 53.890 C 233.053 53.784,233.512 53.242,234.035 52.686 C 237.299 49.220,241.243 47.936,246.857 48.510 M284.763 48.507 C 285.764 48.602,286.733 48.744,286.917 48.822 C 287.100 48.900,287.587 49.052,288.000 49.162 C 288.722 49.352,290.828 50.287,291.000 50.492 C 291.046 50.547,291.404 50.841,291.795 51.146 C 292.814 51.939,293.785 53.372,294.276 54.808 C 294.936 56.735,294.994 57.557,294.997 64.967 C 295.000 73.055,295.049 73.369,296.392 73.884 C 296.882 74.072,296.872 74.425,296.327 76.110 C 296.035 77.012,295.692 78.071,295.565 78.464 C 295.438 78.857,295.331 79.269,295.328 79.381 C 295.307 80.194,294.443 80.232,291.814 79.538 C 290.440 79.175,288.670 77.909,287.933 76.761 L 287.619 76.272 287.266 76.678 C 286.791 77.225,285.579 78.167,285.351 78.167 C 285.250 78.167,285.167 78.229,285.167 78.306 C 285.167 78.453,282.979 79.500,282.673 79.500 C 282.575 79.500,282.365 79.570,282.206 79.656 C 279.792 80.959,273.454 80.186,271.333 78.330 C 271.104 78.130,270.802 77.880,270.662 77.775 C 270.238 77.457,269.000 75.909,269.000 75.698 C 269.000 75.589,268.925 75.500,268.833 75.500 C 268.742 75.500,268.666 75.406,268.666 75.292 C 268.665 75.177,268.560 74.882,268.432 74.637 C 267.014 71.920,267.682 67.233,269.836 64.787 C 270.925 63.549,273.559 61.833,274.370 61.833 C 274.533 61.833,274.667 61.776,274.667 61.706 C 274.667 61.635,275.285 61.442,276.042 61.277 C 276.798 61.111,277.679 60.902,278.000 60.813 C 278.321 60.723,280.290 60.605,282.375 60.550 L 286.167 60.450 286.167 59.947 C 286.167 59.129,285.811 57.333,285.650 57.333 C 285.567 57.333,285.500 57.255,285.500 57.159 C 285.500 56.900,284.672 56.178,283.958 55.813 C 282.622 55.130,278.115 55.043,276.083 55.662 C 275.808 55.746,275.058 55.937,274.417 56.087 C 273.775 56.238,273.086 56.439,272.886 56.536 C 272.346 56.796,272.090 56.617,271.847 55.809 C 271.727 55.410,271.570 54.933,271.497 54.750 C 271.425 54.567,271.201 53.929,271.000 53.333 C 270.799 52.737,270.572 52.100,270.497 51.917 C 269.966 50.628,270.177 50.397,272.417 49.818 C 277.811 48.423,280.683 48.118,284.763 48.507 M334.333 48.827 C 336.152 49.456,336.087 48.720,335.013 56.583 C 334.925 57.225,334.746 58.623,334.614 59.691 C 334.302 62.220,334.615 62.000,331.323 62.000 L 328.500 62.000 328.500 59.315 L 328.500 56.630 327.895 56.743 C 327.562 56.806,327.001 57.039,326.648 57.262 C 326.295 57.484,325.963 57.667,325.911 57.667 C 325.780 57.667,324.357 59.115,323.782 59.833 C 323.219 60.536,321.811 63.314,321.533 64.269 C 321.402 64.718,321.333 66.346,321.333 68.978 L 321.333 73.000 324.051 73.000 C 327.631 73.000,327.353 72.714,327.296 76.334 L 327.250 79.250 317.833 79.250 L 308.417 79.250 308.371 76.355 C 308.315 72.804,308.194 73.000,310.437 73.000 L 312.167 73.000 312.167 64.255 L 312.167 55.511 310.292 55.464 L 308.417 55.417 308.417 52.417 L 308.417 49.417 313.829 49.417 L 319.242 49.417 319.359 49.833 C 319.590 50.650,319.825 51.611,320.270 53.542 C 320.778 55.747,320.792 55.765,321.245 54.790 C 322.594 51.885,325.151 49.573,327.833 48.833 C 328.246 48.719,328.658 48.599,328.750 48.566 C 329.141 48.425,333.801 48.643,334.333 48.827 M36.864 49.160 C 39.188 50.326,39.284 53.823,37.029 55.186 C 35.993 55.812,34.412 55.727,33.451 54.993 C 30.118 52.447,33.135 47.289,36.864 49.160 M47.376 49.833 C 48.089 49.833,49.167 51.236,49.167 52.166 C 49.167 54.921,45.465 55.734,44.411 53.210 C 43.717 51.549,45.273 49.312,46.805 49.767 C 46.927 49.804,47.184 49.833,47.376 49.833 M243.319 54.645 C 241.997 54.926,240.755 56.007,240.040 57.500 C 239.620 58.378,238.960 61.238,239.137 61.415 C 239.274 61.552,249.640 61.513,249.718 61.375 C 249.894 61.064,249.292 58.060,248.888 57.235 C 247.849 55.114,245.737 54.132,243.319 54.645 M177.908 58.265 C 178.136 58.493,178.167 58.992,178.128 61.807 L 178.083 65.083 167.250 65.083 L 156.417 65.083 156.371 61.771 C 156.340 59.469,156.384 58.389,156.517 58.230 C 156.826 57.857,177.534 57.891,177.908 58.265 M50.867 63.993 C 52.939 65.215,52.122 68.667,49.761 68.667 C 48.309 68.667,47.319 67.734,47.211 66.265 C 47.066 64.300,49.170 62.992,50.867 63.993 M281.955 66.016 C 278.745 66.332,277.167 67.705,277.167 70.180 C 277.167 74.047,282.122 74.991,285.288 71.728 C 286.168 70.821,286.190 70.726,286.131 68.083 L 286.083 65.917 284.750 65.894 C 284.017 65.882,282.759 65.937,281.955 66.016 M40.205 67.458 C 43.439 69.321,42.500 74.000,38.892 74.000 C 36.326 74.000,34.573 70.865,35.942 68.723 C 36.817 67.353,38.932 66.725,40.205 67.458 M98.695 73.136 C 100.613 74.926,98.861 78.005,96.310 77.325 C 93.565 76.594,94.179 72.500,97.034 72.500 C 97.938 72.500,98.065 72.549,98.695 73.136 M59.510 74.933 C 60.865 75.293,61.439 77.762,60.417 78.836 C 59.174 80.140,57.494 80.063,56.492 78.655 C 55.017 76.583,56.914 74.244,59.510 74.933 M105.315 79.099 C 108.062 80.470,107.704 84.384,104.739 85.394 C 100.770 86.747,98.660 81.124,102.369 79.076 C 102.927 78.768,104.679 78.782,105.315 79.099 M86.000 79.446 C 87.896 80.578,87.289 83.591,85.094 83.947 C 83.731 84.168,82.602 83.486,82.171 82.181 C 81.494 80.129,84.066 78.291,86.000 79.446 M71.889 80.156 C 72.962 80.564,73.602 82.476,73.021 83.535 C 72.059 85.286,69.397 85.259,68.495 83.490 C 67.417 81.376,69.561 79.271,71.889 80.156 M52.170 82.256 C 53.779 83.071,54.540 85.025,53.854 86.576 C 52.466 89.714,48.072 89.206,47.347 85.825 C 46.782 83.188,49.719 81.014,52.170 82.256 M88.997 88.832 C 91.448 90.082,91.348 93.542,88.823 94.858 C 87.019 95.799,84.352 94.597,84.070 92.717 C 83.932 91.796,84.073 90.448,84.317 90.367 C 84.418 90.333,84.500 90.212,84.500 90.098 C 84.500 88.932,87.524 88.080,88.997 88.832 M69.375 89.815 C 72.940 91.343,72.047 96.296,68.202 96.326 C 65.210 96.350,63.630 92.785,65.691 90.661 C 66.050 90.292,66.567 89.945,66.842 89.890 C 67.116 89.835,67.381 89.725,67.430 89.645 C 67.584 89.396,68.606 89.486,69.375 89.815 " stroke="none" fill="#fcfcfc" fill-rule="evenodd"></path><path id="path1" d="M204.917 39.776 C 196.759 41.393,191.712 47.219,190.644 56.250 C 190.439 57.983,190.553 64.289,190.807 65.267 C 190.900 65.624,191.107 66.554,191.266 67.333 C 191.426 68.112,191.610 68.825,191.676 68.917 C 191.741 69.008,191.847 69.328,191.911 69.628 C 192.554 72.634,196.362 77.155,199.333 78.440 C 200.919 79.126,201.057 79.168,203.877 79.817 C 204.903 80.053,209.711 80.054,210.862 79.818 C 214.751 79.021,216.083 78.588,218.750 77.252 L 220.750 76.250 220.793 66.708 L 220.836 57.167 213.699 57.167 L 206.561 57.167 206.685 58.125 C 206.807 59.067,207.046 60.817,207.267 62.375 L 207.379 63.167 209.656 63.167 C 212.595 63.167,212.333 62.709,212.333 67.841 C 212.333 72.252,212.270 72.667,211.595 72.667 C 211.525 72.667,211.231 72.777,210.942 72.911 C 206.724 74.873,202.024 72.755,200.687 68.292 C 200.584 67.948,200.427 67.422,200.337 67.123 C 199.263 63.542,199.862 52.115,201.173 51.167 C 201.237 51.121,201.345 50.896,201.414 50.667 C 201.709 49.682,203.844 47.425,204.948 46.929 C 206.083 46.420,206.239 46.364,207.032 46.181 C 209.625 45.582,212.568 46.396,215.063 48.402 L 215.876 49.056 218.188 46.704 C 220.660 44.189,220.652 44.201,220.205 43.829 C 215.849 40.205,210.245 38.719,204.917 39.776 M118.167 59.833 L 118.167 79.167 122.665 79.167 L 127.163 79.167 127.207 71.458 L 127.250 63.750 133.958 63.706 L 140.667 63.663 140.667 60.500 L 140.667 57.337 133.958 57.294 L 127.250 57.250 127.250 52.083 L 127.250 46.917 134.935 46.873 L 142.621 46.830 142.735 45.540 C 142.798 44.831,142.914 43.987,142.993 43.667 C 143.073 43.346,143.188 42.502,143.250 41.792 L 143.362 40.500 130.764 40.500 L 118.167 40.500 118.167 59.833 M242.667 48.686 C 236.193 49.333,231.693 53.831,230.414 60.933 C 229.992 63.279,230.236 68.477,230.835 69.917 C 230.912 70.100,231.107 70.625,231.269 71.083 C 232.572 74.764,235.188 77.420,239.083 79.016 C 239.510 79.191,240.624 79.479,242.000 79.771 C 243.244 80.034,247.884 80.084,248.814 79.845 C 249.145 79.759,249.942 79.564,250.583 79.410 C 252.478 78.957,254.768 77.899,256.318 76.761 C 257.324 76.023,257.313 76.082,256.612 75.152 C 256.306 74.748,255.578 73.760,254.994 72.958 C 253.826 71.355,253.769 71.327,252.872 71.891 C 252.322 72.236,251.695 72.542,250.583 73.007 C 248.145 74.026,244.397 73.984,242.328 72.914 C 240.674 72.059,238.481 67.999,239.111 66.958 C 239.152 66.890,243.494 66.833,248.760 66.833 L 258.333 66.833 258.333 64.089 C 258.333 56.175,255.137 50.991,249.139 49.179 C 248.191 48.892,245.093 48.466,244.368 48.522 C 244.212 48.534,243.446 48.608,242.667 48.686 M279.583 48.686 C 278.575 48.763,277.487 48.897,277.167 48.985 C 276.846 49.072,276.208 49.192,275.750 49.251 C 275.292 49.309,274.729 49.419,274.500 49.493 C 274.271 49.568,273.596 49.760,273.000 49.919 C 271.262 50.384,270.500 50.696,270.500 50.942 C 270.500 51.161,271.364 53.875,271.659 54.583 C 271.736 54.767,271.925 55.273,272.079 55.708 C 272.352 56.476,272.546 56.663,272.741 56.348 C 272.793 56.264,273.151 56.142,273.536 56.077 C 273.922 56.012,274.353 55.899,274.494 55.826 C 274.823 55.655,276.984 55.249,278.954 54.989 C 283.501 54.389,286.452 56.321,286.494 59.925 C 286.504 60.806,286.392 60.833,282.692 60.833 C 274.661 60.833,270.022 63.067,268.427 67.702 C 267.965 69.043,267.775 72.598,268.140 73.060 C 268.222 73.165,268.339 73.512,268.398 73.833 C 269.171 77.981,275.563 81.127,280.564 79.821 C 282.490 79.318,283.288 79.076,283.667 78.882 C 283.896 78.765,284.177 78.668,284.292 78.668 C 284.406 78.667,284.500 78.610,284.500 78.541 C 284.500 78.471,284.710 78.322,284.967 78.208 C 285.485 77.979,286.325 77.327,287.007 76.625 C 287.596 76.019,287.678 76.038,288.300 76.919 C 289.832 79.093,295.127 80.821,295.161 79.158 C 295.164 79.015,295.458 78.003,295.814 76.908 C 296.682 74.240,296.676 74.309,296.101 73.917 C 294.721 72.973,294.689 72.748,294.677 64.055 C 294.665 55.870,294.623 55.570,293.092 52.862 C 291.704 50.406,285.518 48.067,281.616 48.523 C 281.506 48.536,280.592 48.609,279.583 48.686 M329.003 48.779 C 328.593 48.822,328.180 48.917,328.087 48.992 C 327.993 49.067,327.663 49.182,327.353 49.249 C 325.373 49.673,323.009 51.881,321.535 54.683 C 320.750 56.177,320.659 56.182,320.318 54.750 C 320.165 54.108,319.826 52.702,319.565 51.625 L 319.091 49.667 313.795 49.667 L 308.500 49.667 308.500 52.411 L 308.500 55.156 310.458 55.203 L 312.417 55.250 312.460 64.286 L 312.503 73.323 310.543 73.370 L 308.583 73.417 308.583 76.250 L 308.583 79.083 317.792 79.126 L 327.000 79.169 327.000 76.251 L 327.000 73.333 324.095 73.333 C 321.466 73.333,321.182 73.306,321.117 73.042 C 320.991 72.535,321.104 64.940,321.246 64.417 C 322.212 60.841,325.391 57.070,327.922 56.499 C 328.659 56.333,328.667 56.362,328.667 59.347 L 328.667 61.833 331.339 61.833 C 333.323 61.833,334.031 61.780,334.088 61.625 C 334.131 61.510,334.242 60.779,334.334 60.000 C 334.426 59.221,334.616 57.721,334.755 56.667 C 334.894 55.612,335.075 54.150,335.157 53.417 C 335.239 52.683,335.399 51.536,335.512 50.867 C 335.634 50.147,335.657 49.598,335.567 49.521 C 334.991 49.020,331.020 48.572,329.003 48.779 M246.083 54.500 C 246.140 54.592,246.312 54.667,246.465 54.667 C 247.367 54.667,248.894 56.339,249.416 57.898 C 249.739 58.863,250.054 61.346,249.875 61.525 C 249.795 61.605,247.296 61.652,244.323 61.627 L 238.917 61.583 238.934 61.000 C 239.017 58.195,240.710 55.316,242.686 54.618 C 243.507 54.328,245.925 54.244,246.083 54.500 M156.611 58.444 C 156.550 58.506,156.500 60.006,156.500 61.778 L 156.500 65.000 167.167 65.000 L 177.833 65.000 177.833 61.667 L 177.833 58.333 167.278 58.333 C 161.472 58.333,156.672 58.383,156.611 58.444 M286.089 65.669 C 286.572 65.853,286.732 69.863,286.289 70.689 C 284.355 74.297,278.722 75.042,277.225 71.888 C 276.260 69.854,277.256 67.412,279.462 66.403 C 280.842 65.772,285.115 65.299,286.089 65.669 " stroke="none" fill="#68384d" fill-rule="evenodd"></path><path id="path2" d="M72.618 23.015 C 70.127 24.329,71.677 28.210,74.341 27.331 C 74.723 27.205,75.073 27.004,75.119 26.884 C 75.165 26.765,75.307 26.667,75.434 26.667 C 75.562 26.667,75.667 26.554,75.667 26.417 C 75.667 26.279,75.742 26.167,75.833 26.167 C 76.187 26.167,76.012 24.112,75.619 23.645 C 74.802 22.674,73.702 22.443,72.618 23.015 M87.583 26.119 C 86.658 26.360,85.833 27.412,85.833 28.351 C 85.833 29.152,86.501 30.333,86.954 30.333 C 87.071 30.333,87.167 30.408,87.167 30.500 C 87.167 30.785,89.132 30.697,89.599 30.391 C 91.749 28.982,90.089 25.464,87.583 26.119 M60.212 27.914 C 58.913 28.478,58.549 30.513,59.552 31.607 C 60.213 32.329,61.421 32.556,62.264 32.118 C 65.063 30.662,63.106 26.655,60.212 27.914 M97.758 35.182 C 96.605 36.194,96.606 37.558,97.760 38.676 C 99.357 40.225,102.002 38.755,101.588 36.549 C 101.264 34.822,99.063 34.036,97.758 35.182 M50.986 37.489 C 48.283 38.329,48.732 42.167,51.533 42.167 C 53.299 42.167,54.461 39.963,53.467 38.500 C 52.889 37.649,51.843 37.223,50.986 37.489 M208.128 39.454 C 208.428 39.491,208.878 39.490,209.128 39.452 C 209.378 39.414,209.133 39.384,208.583 39.385 C 208.033 39.386,207.828 39.417,208.128 39.454 M204.917 39.667 C 204.468 39.781,204.459 39.794,204.833 39.797 C 205.063 39.799,205.438 39.740,205.667 39.667 C 206.227 39.487,205.622 39.487,204.917 39.667 M211.333 39.667 C 212.662 39.940,213.291 40.012,212.902 39.846 C 212.711 39.764,212.111 39.656,211.569 39.605 C 210.648 39.518,210.633 39.522,211.333 39.667 M118.077 40.542 C 118.033 40.656,118.017 49.413,118.041 60.000 L 118.085 79.250 118.126 59.875 L 118.167 40.500 130.772 40.500 L 143.376 40.500 143.285 41.542 C 143.226 42.207,143.241 42.403,143.327 42.083 C 143.400 41.808,143.469 41.302,143.480 40.958 L 143.500 40.333 130.828 40.333 C 120.844 40.333,118.139 40.378,118.077 40.542 M198.375 42.186 C 197.807 42.550,197.623 42.794,198.125 42.518 C 198.507 42.308,199.106 41.845,199.000 41.841 C 198.954 41.840,198.673 41.995,198.375 42.186 M142.939 43.848 C 142.881 44.138,142.842 44.572,142.853 44.813 C 142.864 45.053,142.940 44.845,143.022 44.350 C 143.182 43.384,143.114 42.972,142.939 43.848 M195.750 44.333 C 195.299 44.792,195.001 45.159,195.090 45.150 C 195.246 45.133,196.783 43.500,196.642 43.500 C 196.603 43.500,196.201 43.875,195.750 44.333 M142.705 45.833 C 142.705 46.154,142.740 46.285,142.782 46.125 C 142.823 45.965,142.823 45.702,142.782 45.542 C 142.740 45.381,142.705 45.512,142.705 45.833 M194.373 45.958 C 193.873 46.598,193.187 47.650,193.368 47.500 C 193.546 47.353,195.002 45.333,194.930 45.333 C 194.892 45.333,194.641 45.615,194.373 45.958 M208.129 46.122 C 208.521 46.157,209.121 46.157,209.463 46.121 C 209.804 46.085,209.483 46.057,208.750 46.057 C 208.017 46.058,207.737 46.087,208.129 46.122 M211.014 46.393 C 211.052 46.426,211.308 46.503,211.583 46.565 C 211.948 46.647,212.016 46.631,211.833 46.508 C 211.608 46.355,210.847 46.249,211.014 46.393 M217.163 47.792 L 215.750 49.250 217.208 47.837 C 218.563 46.525,218.743 46.333,218.621 46.333 C 218.596 46.333,217.940 46.990,217.163 47.792 M204.917 46.928 C 204.642 47.071,204.342 47.265,204.250 47.359 C 204.158 47.453,204.402 47.365,204.792 47.165 C 205.181 46.964,205.500 46.770,205.500 46.733 C 205.500 46.633,205.458 46.647,204.917 46.928 M127.242 47.043 C 127.198 47.159,127.181 49.503,127.206 52.252 L 127.250 57.250 133.958 57.294 L 140.667 57.337 140.667 60.500 L 140.667 63.663 133.958 63.706 L 127.250 63.750 127.247 71.500 L 127.245 79.250 127.291 71.542 L 127.337 63.833 134.085 63.833 L 140.833 63.833 140.833 60.502 L 140.833 57.170 134.125 57.127 L 127.417 57.083 127.373 52.043 L 127.328 47.003 135.039 46.958 L 142.750 46.913 135.036 46.873 C 128.954 46.842,127.306 46.878,127.242 47.043 M192.825 48.349 C 192.634 48.725,192.505 49.061,192.540 49.096 C 192.575 49.131,192.767 48.823,192.966 48.413 C 193.421 47.478,193.298 47.423,192.825 48.349 M203.158 48.292 L 202.583 48.917 203.248 48.333 C 203.614 48.012,203.945 47.731,203.984 47.708 C 204.023 47.685,203.983 47.667,203.894 47.667 C 203.805 47.667,203.474 47.948,203.158 48.292 M214.014 47.714 C 214.052 47.740,214.458 48.046,214.917 48.394 L 215.750 49.027 215.000 48.347 C 214.588 47.973,214.181 47.667,214.097 47.667 C 214.013 47.667,213.976 47.688,214.014 47.714 M241.667 48.670 C 241.331 48.743,241.685 48.759,242.500 48.709 C 243.279 48.660,243.948 48.594,243.986 48.560 C 244.110 48.453,242.268 48.540,241.667 48.670 M245.347 48.560 C 245.385 48.593,245.979 48.661,246.667 48.710 C 247.399 48.762,247.710 48.745,247.417 48.669 C 246.911 48.538,245.219 48.449,245.347 48.560 M278.500 48.666 C 278.179 48.733,278.667 48.750,279.583 48.704 C 280.500 48.658,281.281 48.593,281.319 48.560 C 281.444 48.453,279.100 48.540,278.500 48.666 M282.681 48.560 C 282.719 48.593,283.425 48.658,284.250 48.705 C 285.075 48.751,285.525 48.733,285.250 48.664 C 284.743 48.538,282.553 48.449,282.681 48.560 M329.167 48.647 C 328.846 48.704,329.633 48.751,330.917 48.752 C 332.374 48.753,332.969 48.711,332.500 48.639 C 331.598 48.501,329.969 48.505,329.167 48.647 M240.023 49.025 C 239.715 49.113,239.495 49.217,239.533 49.255 C 239.617 49.339,240.833 49.015,240.833 48.909 C 240.833 48.811,240.701 48.830,240.023 49.025 M276.185 49.013 C 275.783 49.093,275.411 49.200,275.358 49.253 C 275.234 49.377,276.647 49.158,277.083 48.986 C 277.512 48.817,277.126 48.829,276.185 49.013 M286.583 49.000 C 286.767 49.079,287.067 49.141,287.250 49.138 C 287.518 49.134,287.502 49.107,287.167 49.000 C 286.597 48.817,286.159 48.817,286.583 49.000 M327.417 49.090 C 326.755 49.319,326.754 49.320,327.333 49.226 C 327.654 49.174,327.988 49.064,328.075 48.982 C 328.270 48.799,328.244 48.803,327.417 49.090 M333.917 48.974 C 334.432 49.195,335.296 49.365,335.000 49.188 C 334.862 49.106,334.487 48.992,334.167 48.935 C 333.773 48.865,333.692 48.878,333.917 48.974 M201.986 49.639 C 201.500 50.328,201.248 50.906,201.502 50.749 C 201.593 50.693,201.667 50.565,201.667 50.464 C 201.667 50.364,201.862 50.026,202.100 49.713 C 202.339 49.401,202.507 49.118,202.475 49.086 C 202.443 49.054,202.223 49.303,201.986 49.639 M274.000 49.500 C 273.657 49.610,273.642 49.636,273.917 49.648 C 274.100 49.655,274.362 49.589,274.500 49.500 C 274.792 49.311,274.589 49.311,274.000 49.500 M308.583 49.500 C 308.515 49.610,310.307 49.667,313.833 49.667 C 317.360 49.667,319.151 49.610,319.083 49.500 C 319.018 49.395,317.085 49.333,313.833 49.333 C 310.582 49.333,308.648 49.395,308.583 49.500 M325.719 49.832 C 325.244 50.105,324.419 50.750,323.886 51.266 L 322.917 52.205 323.906 51.336 C 324.450 50.859,325.294 50.243,325.781 49.968 C 326.268 49.693,326.667 49.438,326.667 49.401 C 326.667 49.293,326.628 49.311,325.719 49.832 M335.647 49.870 C 335.724 50.333,335.747 50.356,335.800 50.022 C 335.834 49.806,335.793 49.560,335.709 49.476 C 335.616 49.383,335.592 49.539,335.647 49.870 M45.679 50.125 C 44.500 50.726,44.019 52.178,44.616 53.330 C 45.807 55.628,49.152 54.709,48.965 52.135 C 48.834 50.319,47.226 49.336,45.679 50.125 M251.500 50.167 C 251.821 50.342,252.158 50.486,252.250 50.486 C 252.342 50.486,252.154 50.342,251.833 50.167 C 251.512 49.991,251.175 49.847,251.083 49.847 C 250.992 49.847,251.179 49.991,251.500 50.167 M272.250 50.000 C 272.040 50.090,272.009 50.143,272.167 50.143 C 272.304 50.143,272.567 50.079,272.750 50.000 C 272.960 49.910,272.991 49.857,272.833 49.857 C 272.696 49.857,272.433 49.921,272.250 50.000 M319.195 50.000 C 319.203 50.433,319.466 51.144,319.472 50.750 C 319.474 50.567,319.412 50.267,319.333 50.083 C 319.246 49.879,319.192 49.847,319.195 50.000 M236.708 50.519 C 236.140 50.883,235.956 51.127,236.458 50.851 C 236.841 50.641,237.440 50.178,237.333 50.175 C 237.287 50.173,237.006 50.328,236.708 50.519 M270.396 50.745 C 270.344 50.879,270.383 51.198,270.482 51.453 C 270.658 51.904,270.660 51.902,270.564 51.354 C 270.496 50.972,270.537 50.746,270.691 50.648 C 270.864 50.538,270.867 50.505,270.703 50.503 C 270.586 50.501,270.447 50.610,270.396 50.745 M252.936 51.027 C 253.200 51.225,253.796 51.731,254.260 52.152 C 254.724 52.573,254.586 52.410,253.953 51.792 C 253.320 51.173,252.724 50.667,252.629 50.667 C 252.533 50.667,252.671 50.829,252.936 51.027 M291.667 51.204 C 291.667 51.350,292.694 52.361,292.768 52.288 C 292.801 52.254,292.567 51.974,292.248 51.664 C 291.928 51.355,291.667 51.148,291.667 51.204 M335.250 52.500 C 335.185 53.061,335.167 53.556,335.210 53.599 C 335.254 53.642,335.341 53.217,335.405 52.655 C 335.468 52.092,335.486 51.597,335.444 51.556 C 335.403 51.514,335.315 51.939,335.250 52.500 M191.262 52.262 C 191.201 52.506,191.183 52.738,191.222 52.777 C 191.261 52.817,191.343 52.649,191.405 52.405 C 191.466 52.161,191.484 51.929,191.445 51.889 C 191.406 51.850,191.323 52.018,191.262 52.262 M319.690 52.000 C 319.690 52.137,319.755 52.400,319.833 52.583 C 319.924 52.793,319.977 52.824,319.977 52.667 C 319.977 52.529,319.912 52.267,319.833 52.083 C 319.743 51.873,319.690 51.842,319.690 52.000 M200.595 52.595 C 200.534 52.839,200.516 53.071,200.555 53.111 C 200.594 53.150,200.677 52.982,200.738 52.738 C 200.799 52.494,200.817 52.262,200.778 52.223 C 200.739 52.183,200.657 52.351,200.595 52.595 M293.000 52.790 C 293.000 52.883,293.112 53.053,293.250 53.167 C 293.387 53.281,293.500 53.473,293.500 53.594 C 293.500 53.715,293.574 53.859,293.665 53.915 C 293.763 53.976,293.785 53.897,293.720 53.717 C 293.573 53.315,293.000 52.578,293.000 52.790 M233.500 53.369 C 232.816 54.218,232.742 54.467,233.387 53.750 C 233.716 53.383,233.989 53.027,233.993 52.958 C 234.004 52.766,233.949 52.812,233.500 53.369 M255.499 53.625 C 255.718 53.923,255.922 54.167,255.954 54.167 C 256.080 54.167,255.667 53.542,255.394 53.320 C 255.214 53.173,255.254 53.290,255.499 53.625 M200.282 53.701 C 200.232 53.911,200.151 54.458,200.102 54.917 C 200.031 55.587,200.061 55.524,200.256 54.596 C 200.476 53.545,200.498 52.797,200.282 53.701 M320.111 54.000 C 320.270 54.876,320.515 55.384,320.393 54.583 C 320.336 54.217,320.226 53.804,320.148 53.667 C 320.062 53.515,320.047 53.645,320.111 54.000 M190.854 53.917 C 190.840 54.100,190.790 54.438,190.743 54.667 L 190.657 55.083 190.836 54.674 C 190.934 54.450,190.984 54.112,190.947 53.924 C 190.880 53.592,190.878 53.592,190.854 53.917 M243.130 54.470 C 242.973 54.532,243.584 54.583,244.489 54.583 C 245.393 54.583,246.099 54.527,246.057 54.458 C 245.963 54.304,243.525 54.314,243.130 54.470 M271.664 54.992 C 271.752 55.296,271.869 55.591,271.925 55.647 C 272.082 55.804,271.810 54.772,271.648 54.595 C 271.570 54.509,271.577 54.688,271.664 54.992 M334.939 55.015 C 334.881 55.305,334.842 55.776,334.854 56.063 C 334.866 56.373,334.932 56.183,335.018 55.595 C 335.171 54.543,335.115 54.133,334.939 55.015 M279.000 54.981 C 278.679 55.037,279.317 55.085,280.417 55.087 C 281.713 55.088,282.182 55.048,281.750 54.971 C 280.965 54.832,279.818 54.836,279.000 54.981 M321.046 55.343 C 320.993 55.546,320.863 55.650,320.728 55.598 C 320.603 55.550,320.500 55.579,320.500 55.662 C 320.500 55.924,320.789 56.005,320.955 55.790 C 321.168 55.514,321.347 55.000,321.229 55.000 C 321.178 55.000,321.095 55.154,321.046 55.343 M240.991 55.792 L 240.417 56.417 241.042 55.842 C 241.385 55.526,241.667 55.245,241.667 55.217 C 241.667 55.090,241.526 55.210,240.991 55.792 M248.000 55.765 C 248.320 56.124,248.650 56.492,248.732 56.583 C 248.814 56.675,248.751 56.525,248.593 56.250 C 248.435 55.975,248.105 55.607,247.861 55.432 C 247.493 55.168,247.516 55.225,248.000 55.765 M276.583 55.333 C 276.134 55.448,276.126 55.461,276.500 55.464 C 276.729 55.465,277.104 55.407,277.333 55.333 C 277.894 55.154,277.288 55.154,276.583 55.333 M310.333 55.322 L 312.250 55.417 312.293 64.292 L 312.336 73.167 310.511 73.167 C 309.508 73.167,308.651 73.223,308.609 73.292 C 308.566 73.360,309.425 73.393,310.517 73.365 L 312.503 73.314 312.460 64.282 L 312.417 55.250 310.417 55.239 L 308.417 55.228 310.333 55.322 M294.362 55.750 C 294.359 55.933,294.421 56.233,294.500 56.417 C 294.683 56.841,294.683 56.403,294.500 55.833 C 294.393 55.498,294.366 55.482,294.362 55.750 M274.435 55.803 C 274.389 55.878,274.572 55.907,274.842 55.868 C 275.112 55.828,275.333 55.767,275.333 55.731 C 275.333 55.604,274.518 55.670,274.435 55.803 M284.500 55.985 C 284.729 56.173,284.992 56.326,285.083 56.327 C 285.262 56.328,284.960 56.098,284.417 55.817 C 284.195 55.702,284.223 55.759,284.500 55.985 M190.539 56.333 C 190.539 56.654,190.573 56.785,190.615 56.625 C 190.657 56.465,190.657 56.202,190.615 56.042 C 190.573 55.881,190.539 56.012,190.539 56.333 M273.250 56.119 C 273.067 56.163,272.847 56.265,272.761 56.347 C 272.676 56.428,272.855 56.423,273.159 56.336 C 274.018 56.089,274.090 55.917,273.250 56.119 M199.773 57.273 C 199.638 58.255,199.665 62.625,199.808 63.135 C 199.868 63.346,199.917 61.940,199.917 60.010 C 199.917 56.118,199.921 56.194,199.773 57.273 M328.567 59.250 C 328.568 60.717,328.593 61.294,328.624 60.534 C 328.655 59.773,328.655 58.573,328.624 57.867 C 328.593 57.161,328.567 57.783,328.567 59.250 M210.042 57.125 C 212.035 57.151,215.298 57.151,217.292 57.125 C 219.285 57.098,217.654 57.076,213.667 57.076 C 209.679 57.076,208.048 57.098,210.042 57.125 M231.185 57.519 C 231.083 57.813,231.028 58.083,231.063 58.119 C 231.099 58.155,231.212 57.943,231.315 57.648 C 231.417 57.354,231.472 57.083,231.437 57.048 C 231.401 57.012,231.288 57.224,231.185 57.519 M190.401 59.833 C 190.401 61.346,190.426 61.965,190.457 61.208 C 190.488 60.452,190.488 59.215,190.457 58.458 C 190.426 57.702,190.401 58.321,190.401 59.833 M206.539 57.833 C 206.539 58.154,206.573 58.285,206.615 58.125 C 206.657 57.965,206.657 57.702,206.615 57.542 C 206.573 57.381,206.539 57.512,206.539 57.833 M294.743 64.417 C 294.743 68.267,294.765 69.818,294.792 67.864 C 294.818 65.910,294.818 62.760,294.791 60.864 C 294.765 58.968,294.743 60.567,294.743 64.417 M249.441 58.500 C 249.573 59.219,249.668 59.354,249.664 58.819 C 249.663 58.598,249.588 58.304,249.498 58.167 C 249.382 57.991,249.366 58.090,249.441 58.500 M156.609 58.292 C 156.539 58.405,164.142 58.404,174.083 58.288 C 176.192 58.264,173.140 58.226,167.302 58.205 C 161.463 58.184,156.652 58.223,156.609 58.292 M239.271 58.854 C 239.132 59.549,239.267 59.684,239.417 59.000 C 239.480 58.712,239.497 58.441,239.455 58.399 C 239.412 58.357,239.329 58.561,239.271 58.854 M324.167 59.000 C 323.876 59.367,323.676 59.667,323.722 59.667 C 323.768 59.667,324.043 59.367,324.333 59.000 C 324.624 58.633,324.824 58.333,324.778 58.333 C 324.732 58.333,324.457 58.633,324.167 59.000 M334.448 58.671 C 334.388 58.898,334.346 59.421,334.356 59.833 C 334.373 60.563,334.378 60.556,334.520 59.583 C 334.675 58.522,334.632 57.982,334.448 58.671 M177.903 61.750 C 177.903 63.583,177.928 64.356,177.957 63.467 C 177.987 62.578,177.988 61.078,177.958 60.134 C 177.928 59.189,177.904 59.917,177.903 61.750 M286.290 59.458 C 286.340 60.031,286.351 60.514,286.315 60.532 C 286.279 60.550,284.862 60.609,283.167 60.665 L 280.083 60.765 283.092 60.799 C 286.665 60.840,286.928 60.680,286.333 58.833 C 286.251 58.581,286.234 58.829,286.290 59.458 M257.943 59.250 C 257.999 59.617,258.072 59.948,258.105 59.986 C 258.232 60.129,258.137 59.237,257.992 58.917 C 257.887 58.684,257.872 58.785,257.943 59.250 M206.696 59.083 C 206.690 59.267,206.748 59.717,206.824 60.083 C 206.940 60.644,206.962 60.670,206.961 60.250 C 206.960 59.666,206.712 58.571,206.696 59.083 M238.906 60.582 C 238.690 61.730,238.402 61.676,244.454 61.627 L 249.917 61.583 249.937 61.123 C 249.956 60.701,249.951 60.698,249.884 61.081 L 249.811 61.500 244.383 61.500 L 238.955 61.500 239.057 60.750 C 239.179 59.867,239.064 59.740,238.906 60.582 M277.519 61.013 C 277.116 61.093,276.744 61.200,276.692 61.253 C 276.580 61.364,277.887 61.172,278.500 60.988 C 279.088 60.810,278.470 60.827,277.519 61.013 M258.401 63.833 C 258.401 65.346,258.426 65.965,258.457 65.208 C 258.488 64.452,258.488 63.215,258.457 62.458 C 258.426 61.702,258.401 62.321,258.401 63.833 M275.500 61.500 C 275.157 61.610,275.142 61.636,275.417 61.648 C 275.600 61.655,275.862 61.589,276.000 61.500 C 276.292 61.311,276.089 61.311,275.500 61.500 M274.250 61.923 C 273.833 62.123,273.819 62.146,274.167 62.062 C 274.639 61.946,275.170 61.676,274.917 61.679 C 274.825 61.681,274.525 61.790,274.250 61.923 M207.208 62.708 L 207.250 63.250 209.667 63.333 L 212.083 63.417 212.083 67.828 L 212.083 72.240 211.705 72.429 C 211.197 72.682,211.013 72.880,211.422 72.733 C 212.343 72.404,212.333 72.454,212.333 67.841 C 212.333 62.708,212.597 63.167,209.644 63.167 L 207.354 63.167 207.261 62.667 C 207.168 62.174,207.167 62.174,207.208 62.708 M190.545 63.500 C 190.545 63.913,190.578 64.081,190.618 63.875 C 190.657 63.669,190.657 63.331,190.618 63.125 C 190.578 62.919,190.545 63.087,190.545 63.500 M230.057 64.417 C 230.058 65.150,230.087 65.429,230.122 65.037 C 230.157 64.645,230.157 64.045,230.121 63.704 C 230.085 63.363,230.057 63.683,230.057 64.417 M270.407 64.379 L 269.583 65.250 270.414 64.500 C 270.870 64.087,271.276 63.731,271.316 63.708 C 271.356 63.685,271.353 63.631,271.309 63.587 C 271.266 63.543,270.859 63.900,270.407 64.379 M48.583 63.992 C 47.554 64.418,47.031 65.786,47.458 66.935 C 48.114 68.701,50.118 69.078,51.367 67.670 C 53.051 65.772,50.960 63.009,48.583 63.992 M321.183 64.750 C 321.093 65.244,321.034 72.702,321.117 73.042 C 321.183 73.307,321.446 73.330,324.053 73.296 L 326.917 73.259 324.128 73.209 L 321.339 73.159 321.292 68.788 C 321.266 66.384,321.217 64.567,321.183 64.750 M161.875 65.125 C 164.785 65.150,169.548 65.150,172.458 65.125 C 175.369 65.099,172.987 65.078,167.167 65.078 C 161.346 65.078,158.965 65.099,161.875 65.125 M190.698 65.250 C 190.703 65.433,190.763 65.808,190.833 66.083 L 190.961 66.583 190.969 66.083 C 190.973 65.808,190.912 65.433,190.833 65.250 L 190.690 64.917 190.698 65.250 M269.301 65.625 C 269.008 65.967,268.787 66.333,268.875 66.333 C 268.909 66.333,269.104 66.108,269.307 65.833 C 269.709 65.290,269.705 65.155,269.301 65.625 M282.833 65.667 L 282.083 65.783 282.782 65.808 C 283.166 65.822,283.527 65.758,283.583 65.667 C 283.640 65.575,283.663 65.511,283.635 65.525 C 283.607 65.539,283.246 65.603,282.833 65.667 M283.936 65.635 C 283.897 65.698,284.177 65.732,284.557 65.711 C 284.938 65.690,285.492 65.711,285.787 65.759 L 286.324 65.847 286.375 68.215 L 286.427 70.583 286.463 68.204 C 286.500 65.857,286.495 65.823,286.115 65.679 C 285.655 65.504,284.038 65.471,283.936 65.635 M200.169 66.264 C 200.171 66.531,200.243 66.862,200.331 67.000 C 200.440 67.170,200.458 67.037,200.388 66.583 C 200.262 65.759,200.166 65.619,200.169 66.264 M280.500 66.000 C 280.170 66.106,280.153 66.133,280.417 66.133 C 280.600 66.133,280.938 66.073,281.167 66.000 C 281.497 65.894,281.514 65.867,281.250 65.867 C 281.067 65.867,280.729 65.927,280.500 66.000 M278.250 67.088 C 277.598 67.623,277.774 67.619,278.500 67.083 C 278.811 66.854,278.994 66.669,278.907 66.673 C 278.821 66.676,278.525 66.863,278.250 67.088 M239.111 66.944 C 239.050 67.006,239.001 67.137,239.003 67.236 C 239.004 67.344,239.058 67.334,239.137 67.210 C 239.238 67.050,241.422 66.993,248.759 66.958 L 258.250 66.914 248.736 66.874 C 243.503 66.851,239.172 66.883,239.111 66.944 M230.279 67.750 C 230.334 68.208,230.441 68.733,230.517 68.917 C 230.685 69.324,230.506 67.934,230.313 67.333 C 230.230 67.077,230.217 67.237,230.279 67.750 M191.169 67.597 C 191.171 67.773,191.248 68.029,191.341 68.167 C 191.464 68.349,191.480 68.282,191.398 67.917 C 191.261 67.304,191.166 67.171,191.169 67.597 M239.195 68.167 C 239.203 68.600,239.466 69.311,239.472 68.917 C 239.474 68.733,239.412 68.433,239.333 68.250 C 239.246 68.046,239.192 68.014,239.195 68.167 M191.664 69.326 C 191.752 69.630,191.869 69.925,191.925 69.981 C 192.082 70.137,191.810 69.105,191.648 68.928 C 191.570 68.842,191.577 69.021,191.664 69.326 M267.875 70.083 C 267.877 70.450,267.911 70.580,267.951 70.373 C 267.991 70.166,267.990 69.866,267.948 69.706 C 267.906 69.547,267.874 69.717,267.875 70.083 M240.005 70.449 C 240.002 70.559,240.169 70.825,240.375 71.041 C 240.581 71.256,240.667 71.317,240.565 71.175 C 240.463 71.033,240.297 70.767,240.195 70.583 C 240.093 70.400,240.008 70.340,240.005 70.449 M202.240 71.388 C 202.496 71.725,202.740 72.000,202.781 72.000 C 202.897 72.000,202.175 71.025,201.962 70.893 C 201.858 70.829,201.983 71.052,202.240 71.388 M267.879 71.500 C 267.879 71.912,267.911 72.081,267.951 71.875 C 267.991 71.669,267.991 71.331,267.951 71.125 C 267.911 70.919,267.879 71.087,267.879 71.500 M286.000 70.963 C 286.000 71.065,285.606 71.540,285.125 72.019 C 284.553 72.589,284.441 72.752,284.801 72.490 C 285.439 72.027,286.247 71.025,286.100 70.878 C 286.045 70.823,286.000 70.861,286.000 70.963 M192.500 71.396 C 192.500 71.576,193.162 72.833,193.257 72.833 C 193.303 72.833,193.179 72.515,192.983 72.125 C 192.597 71.359,192.500 71.213,192.500 71.396 M294.836 72.014 C 294.837 72.235,294.912 72.529,295.002 72.667 C 295.118 72.843,295.134 72.744,295.059 72.333 C 294.927 71.615,294.832 71.479,294.836 72.014 M241.686 72.476 C 242.198 72.875,243.177 73.378,243.267 73.288 C 243.305 73.250,243.036 73.083,242.667 72.917 C 242.299 72.751,241.914 72.514,241.812 72.391 C 241.710 72.268,241.550 72.167,241.457 72.167 C 241.364 72.167,241.467 72.306,241.686 72.476 M96.050 72.761 C 93.779 73.755,94.524 77.333,97.002 77.333 C 97.965 77.333,99.165 76.415,99.205 75.647 C 99.216 75.428,99.287 75.167,99.363 75.066 C 99.545 74.823,99.207 73.846,98.777 73.371 C 98.023 72.538,97.054 72.321,96.050 72.761 M210.200 72.998 C 209.897 73.069,209.603 73.175,209.545 73.232 C 209.385 73.393,210.562 73.143,210.742 72.978 C 210.829 72.898,210.866 72.841,210.825 72.850 C 210.784 72.860,210.502 72.926,210.200 72.998 M250.042 73.020 C 249.744 73.106,249.500 73.213,249.500 73.258 C 249.500 73.379,250.391 73.147,250.575 72.978 C 250.757 72.812,250.763 72.812,250.042 73.020 M193.616 73.539 C 194.000 74.227,197.116 77.392,197.667 77.654 C 198.014 77.819,198.000 77.789,197.583 77.474 C 196.585 76.721,194.658 74.761,194.058 73.891 C 193.369 72.891,193.161 72.726,193.616 73.539 M268.003 73.198 C 268.007 73.617,268.328 73.962,268.331 73.552 C 268.332 73.351,268.258 73.140,268.167 73.083 C 268.075 73.027,268.001 73.079,268.003 73.198 M295.501 73.390 C 295.729 73.651,296.067 73.941,296.250 74.036 C 296.601 74.217,296.591 74.206,295.667 73.415 L 295.085 72.917 295.501 73.390 M206.875 73.493 C 207.219 73.560,207.781 73.560,208.125 73.493 C 208.616 73.398,208.483 73.372,207.500 73.372 C 206.517 73.372,206.384 73.398,206.875 73.493 M243.833 73.502 C 243.971 73.590,244.302 73.663,244.569 73.664 C 245.214 73.667,245.074 73.571,244.250 73.445 C 243.796 73.375,243.663 73.394,243.833 73.502 M248.083 73.500 L 247.417 73.619 248.000 73.631 C 248.321 73.638,248.733 73.579,248.917 73.500 C 249.309 73.331,249.026 73.331,248.083 73.500 M327.069 76.250 C 327.069 77.900,327.094 78.552,327.124 77.700 C 327.155 76.847,327.154 75.497,327.124 74.700 C 327.093 73.902,327.069 74.600,327.069 76.250 M245.792 73.784 C 245.998 73.824,246.335 73.824,246.542 73.784 C 246.748 73.745,246.579 73.712,246.167 73.712 C 245.754 73.712,245.585 73.745,245.792 73.784 M232.652 74.139 C 232.742 74.307,232.946 74.550,233.106 74.680 C 233.286 74.827,233.246 74.710,233.001 74.375 C 232.563 73.777,232.399 73.666,232.652 74.139 M57.853 75.001 C 56.041 75.427,55.590 77.956,57.118 79.121 C 59.403 80.864,62.175 77.757,60.192 75.674 C 59.840 75.303,59.396 75.000,59.206 75.000 C 59.016 75.000,58.761 74.970,58.639 74.934 C 58.517 74.898,58.163 74.928,57.853 75.001 M296.185 75.685 C 296.083 75.980,296.028 76.250,296.063 76.286 C 296.099 76.321,296.212 76.109,296.315 75.815 C 296.417 75.520,296.472 75.250,296.437 75.214 C 296.401 75.179,296.288 75.391,296.185 75.685 M269.934 76.875 C 270.286 77.265,270.801 77.767,271.079 77.992 C 271.356 78.216,271.096 77.897,270.501 77.283 C 269.286 76.031,268.958 75.794,269.934 76.875 M235.333 76.997 C 235.654 77.286,236.067 77.602,236.250 77.699 C 236.692 77.932,236.418 77.682,235.500 77.015 L 234.750 76.470 235.333 76.997 M288.701 77.592 C 288.949 77.864,289.399 78.220,289.701 78.384 C 290.230 78.670,290.235 78.670,289.837 78.382 C 289.610 78.218,289.160 77.862,288.837 77.591 L 288.250 77.098 288.701 77.592 M285.045 78.137 C 284.750 78.291,284.506 78.476,284.504 78.548 C 284.500 78.693,284.907 78.493,285.417 78.101 C 285.843 77.772,285.723 77.784,285.045 78.137 M200.167 78.917 C 200.396 79.048,200.658 79.155,200.750 79.155 C 200.842 79.155,200.729 79.048,200.500 78.917 C 200.271 78.786,200.008 78.678,199.917 78.678 C 199.825 78.678,199.938 78.786,200.167 78.917 M252.375 78.839 C 251.817 79.063,251.921 79.177,252.500 78.975 C 252.775 78.879,253.000 78.771,253.000 78.734 C 253.000 78.635,252.797 78.669,252.375 78.839 M83.445 79.518 C 82.768 79.875,82.177 80.875,82.170 81.675 C 82.159 82.950,84.077 84.367,85.127 83.860 C 85.286 83.784,85.642 83.613,85.917 83.482 C 86.914 83.006,87.300 81.410,86.668 80.373 C 85.965 79.221,84.664 78.875,83.445 79.518 M201.250 79.333 C 201.433 79.412,201.696 79.477,201.833 79.477 C 201.991 79.477,201.960 79.424,201.750 79.333 C 201.567 79.255,201.304 79.190,201.167 79.190 C 201.009 79.190,201.040 79.243,201.250 79.333 M212.833 79.417 C 212.421 79.536,212.233 79.636,212.417 79.637 C 212.600 79.639,213.050 79.542,213.417 79.421 C 214.280 79.137,213.812 79.133,212.833 79.417 M239.667 79.312 C 239.804 79.394,240.179 79.508,240.500 79.565 C 240.894 79.635,240.975 79.622,240.750 79.526 C 240.235 79.305,239.371 79.135,239.667 79.312 M282.167 79.417 C 281.846 79.540,281.696 79.644,281.833 79.646 C 281.971 79.649,282.308 79.549,282.583 79.423 C 283.227 79.128,282.928 79.124,282.167 79.417 M203.167 79.833 C 203.778 80.029,204.539 80.029,204.083 79.833 C 203.900 79.755,203.525 79.692,203.250 79.695 C 202.762 79.700,202.760 79.703,203.167 79.833 M210.667 79.833 L 210.250 79.967 210.667 79.967 C 210.896 79.967,211.271 79.907,211.500 79.833 L 211.917 79.700 211.500 79.700 C 211.271 79.700,210.896 79.760,210.667 79.833 M241.583 79.833 C 242.288 80.013,242.894 80.013,242.333 79.833 C 242.104 79.760,241.729 79.701,241.500 79.703 C 241.126 79.706,241.134 79.719,241.583 79.833 M248.750 79.841 C 248.518 79.946,248.619 79.961,249.083 79.891 C 249.450 79.835,249.781 79.762,249.819 79.728 C 249.963 79.602,249.070 79.696,248.750 79.841 M274.750 79.833 C 274.933 79.912,275.196 79.977,275.333 79.977 C 275.491 79.977,275.460 79.924,275.250 79.833 C 275.067 79.755,274.804 79.690,274.667 79.690 C 274.509 79.690,274.540 79.743,274.750 79.833 M280.417 79.841 C 280.184 79.946,280.285 79.961,280.750 79.891 C 281.117 79.835,281.448 79.762,281.486 79.728 C 281.629 79.602,280.737 79.696,280.417 79.841 M293.250 79.833 C 293.525 79.903,293.938 79.961,294.167 79.961 C 294.538 79.961,294.529 79.947,294.083 79.833 C 293.808 79.763,293.396 79.706,293.167 79.706 C 292.795 79.706,292.804 79.720,293.250 79.833 M69.551 80.326 C 67.866 81.353,67.955 83.501,69.721 84.422 C 70.789 84.979,71.613 84.832,72.488 83.929 C 74.284 82.076,71.759 78.980,69.551 80.326 M206.375 80.123 C 206.902 80.156,207.765 80.156,208.292 80.123 C 208.819 80.090,208.387 80.063,207.333 80.063 C 206.279 80.063,205.848 80.090,206.375 80.123 M244.465 80.124 C 245.041 80.156,245.941 80.156,246.465 80.123 C 246.988 80.090,246.517 80.063,245.417 80.064 C 244.317 80.064,243.888 80.091,244.465 80.124 M277.042 80.123 C 277.477 80.157,278.190 80.157,278.625 80.123 C 279.060 80.088,278.704 80.060,277.833 80.060 C 276.962 80.060,276.606 80.088,277.042 80.123 " stroke="none" fill="#a4949c" fill-rule="evenodd"></path><path id="path3" d="M69.611 14.611 C 69.458 14.764,69.470 16.295,69.625 16.391 C 69.694 16.433,69.750 16.025,69.750 15.484 C 69.750 14.943,69.744 14.500,69.736 14.500 C 69.728 14.500,69.672 14.550,69.611 14.611 M89.406 16.542 L 88.917 17.083 89.458 16.594 C 89.756 16.325,90.000 16.081,90.000 16.052 C 90.000 15.923,89.862 16.037,89.406 16.542 M69.964 17.252 C 70.059 17.436,70.311 17.736,70.526 17.917 C 70.903 18.236,70.902 18.230,70.502 17.749 C 69.839 16.949,69.783 16.898,69.964 17.252 M54.375 17.782 C 54.535 17.823,54.798 17.823,54.958 17.782 C 55.119 17.740,54.987 17.705,54.667 17.705 C 54.346 17.705,54.215 17.740,54.375 17.782 M95.218 18.917 C 95.219 19.467,95.250 19.672,95.287 19.372 C 95.325 19.072,95.324 18.622,95.286 18.372 C 95.248 18.122,95.217 18.367,95.218 18.917 M56.667 18.385 C 56.667 18.414,56.910 18.658,57.208 18.927 L 57.750 19.417 57.260 18.875 C 56.804 18.370,56.667 18.257,56.667 18.385 M72.276 18.875 C 72.372 19.031,73.312 19.018,73.728 18.854 C 73.916 18.780,73.675 18.735,73.119 18.741 C 72.613 18.746,72.234 18.806,72.276 18.875 M57.794 20.091 C 57.838 20.319,57.928 20.539,57.996 20.581 C 58.063 20.622,58.083 20.470,58.039 20.242 C 57.996 20.015,57.905 19.794,57.838 19.753 C 57.770 19.711,57.750 19.863,57.794 20.091 M91.627 22.285 C 91.834 22.324,92.134 22.323,92.294 22.281 C 92.453 22.239,92.283 22.207,91.917 22.209 C 91.550 22.211,91.420 22.245,91.627 22.285 M57.667 22.472 C 57.667 22.578,57.388 22.985,57.048 23.375 C 56.460 24.047,56.457 24.058,56.979 23.583 C 57.583 23.034,57.914 22.525,57.764 22.375 C 57.710 22.321,57.667 22.365,57.667 22.472 M72.393 22.987 C 72.105 23.163,71.811 23.406,71.740 23.528 C 71.663 23.659,71.740 23.639,71.930 23.479 C 72.106 23.330,72.475 23.090,72.750 22.944 C 73.025 22.799,73.175 22.677,73.083 22.674 C 72.992 22.671,72.681 22.812,72.393 22.987 M51.848 23.125 C 51.949 23.285,52.231 23.560,52.474 23.735 C 52.825 23.987,52.798 23.926,52.342 23.443 C 51.711 22.772,51.567 22.680,51.848 23.125 M71.339 24.156 C 70.756 25.245,71.604 27.086,72.833 27.402 C 73.137 27.480,73.095 27.428,72.681 27.213 C 71.613 26.657,70.999 25.103,71.487 24.191 C 71.592 23.994,71.641 23.833,71.595 23.833 C 71.549 23.833,71.434 23.978,71.339 24.156 M76.030 25.083 C 76.027 25.966,76.047 26.027,76.199 25.609 C 76.317 25.285,76.318 24.966,76.203 24.609 C 76.049 24.129,76.034 24.171,76.030 25.083 M87.616 25.975 C 87.442 26.044,87.722 26.097,88.283 26.102 C 88.949 26.108,89.120 26.072,88.833 25.988 C 88.297 25.832,87.989 25.828,87.616 25.975 M86.400 26.733 C 85.878 27.255,85.611 27.824,86.000 27.583 C 86.092 27.527,86.167 27.378,86.167 27.252 C 86.167 27.127,86.410 26.832,86.708 26.597 C 87.006 26.362,87.186 26.170,87.108 26.169 C 87.030 26.167,86.712 26.422,86.400 26.733 M89.875 26.801 C 90.219 27.186,90.500 27.588,90.500 27.695 C 90.500 27.802,90.545 27.844,90.600 27.789 C 90.753 27.636,90.190 26.788,89.694 26.425 C 89.356 26.178,89.399 26.267,89.875 26.801 M74.667 27.177 C 74.346 27.346,74.196 27.487,74.333 27.491 C 74.471 27.495,74.808 27.349,75.083 27.167 C 75.702 26.757,75.452 26.763,74.667 27.177 M62.167 27.853 C 62.396 27.945,62.808 28.221,63.083 28.468 C 63.496 28.837,63.483 28.807,63.009 28.291 C 62.687 27.942,62.284 27.671,62.092 27.677 C 61.792 27.687,61.801 27.708,62.167 27.853 M59.464 28.292 C 58.175 29.769,58.893 32.161,60.702 32.417 C 61.220 32.490,61.216 32.484,60.628 32.315 C 59.106 31.875,58.482 29.976,59.412 28.607 C 59.853 27.956,59.876 27.819,59.464 28.292 M109.666 28.625 C 109.884 28.923,110.089 29.167,110.121 29.167 C 110.247 29.167,109.834 28.542,109.561 28.320 C 109.381 28.173,109.421 28.290,109.666 28.625 M63.583 30.000 C 63.583 30.532,63.638 30.882,63.706 30.776 C 63.773 30.670,63.828 30.321,63.828 30.000 C 63.828 29.679,63.773 29.330,63.706 29.224 C 63.638 29.118,63.583 29.468,63.583 30.000 M110.250 30.500 C 110.250 31.032,110.305 31.382,110.372 31.276 C 110.440 31.170,110.495 30.821,110.495 30.500 C 110.495 30.179,110.440 29.830,110.372 29.724 C 110.305 29.618,110.250 29.968,110.250 30.500 M87.775 30.870 C 88.133 30.985,88.452 30.984,88.775 30.866 C 89.194 30.713,89.132 30.693,88.250 30.697 C 87.337 30.700,87.296 30.715,87.775 30.870 M40.276 30.958 C 40.233 31.027,40.597 31.083,41.083 31.083 C 41.570 31.083,41.933 31.027,41.891 30.958 C 41.848 30.890,41.485 30.833,41.083 30.833 C 40.682 30.833,40.318 30.890,40.276 30.958 M62.982 31.593 C 62.748 31.828,62.262 32.132,61.903 32.268 L 61.250 32.515 61.833 32.421 C 62.301 32.345,63.861 31.167,63.493 31.167 C 63.447 31.167,63.217 31.359,62.982 31.593 M38.301 32.458 C 38.008 32.800,37.787 33.167,37.875 33.167 C 37.909 33.167,38.104 32.942,38.307 32.667 C 38.709 32.123,38.705 31.988,38.301 32.458 M104.167 32.272 C 104.167 32.459,104.775 33.047,105.167 33.240 C 105.304 33.307,105.234 33.214,105.011 33.032 C 104.787 32.850,104.506 32.567,104.386 32.402 C 104.265 32.238,104.167 32.179,104.167 32.272 M98.832 34.504 C 98.654 34.617,98.793 34.662,99.319 34.664 C 100.111 34.667,100.162 34.605,99.499 34.447 C 99.269 34.392,98.969 34.418,98.832 34.504 M97.532 35.186 C 97.239 35.472,97.000 35.782,97.000 35.876 C 97.000 35.969,97.155 35.848,97.344 35.608 C 97.533 35.368,97.849 35.058,98.047 34.919 C 98.245 34.780,98.330 34.667,98.235 34.667 C 98.141 34.667,97.824 34.901,97.532 35.186 M100.676 35.117 C 100.970 35.364,101.310 35.796,101.432 36.075 C 101.566 36.382,101.656 36.468,101.660 36.292 C 101.667 35.981,100.568 34.667,100.301 34.667 C 100.213 34.667,100.382 34.869,100.676 35.117 M50.143 37.742 C 49.812 37.966,49.495 38.272,49.438 38.421 C 49.381 38.570,49.564 38.462,49.845 38.181 C 50.125 37.900,50.594 37.601,50.886 37.517 C 51.234 37.416,51.301 37.358,51.080 37.348 C 50.895 37.340,50.474 37.517,50.143 37.742 M52.250 37.521 C 53.288 37.914,53.692 38.499,53.845 39.833 L 53.951 40.750 53.975 39.950 C 54.014 38.703,53.277 37.627,52.250 37.428 L 51.750 37.331 52.250 37.521 M97.000 37.939 C 97.000 39.433,100.480 39.984,101.194 38.603 C 101.334 38.332,101.253 38.366,100.847 38.747 C 99.963 39.577,98.530 39.487,97.652 38.545 C 97.293 38.161,97.000 37.888,97.000 37.939 M49.111 38.944 C 48.962 39.094,48.974 40.368,49.128 40.609 C 49.195 40.715,49.250 40.359,49.250 39.817 C 49.250 39.276,49.244 38.833,49.236 38.833 C 49.228 38.833,49.172 38.883,49.111 38.944 M208.211 39.286 C 208.464 39.325,208.839 39.324,209.044 39.284 C 209.249 39.244,209.042 39.213,208.583 39.214 C 208.125 39.216,207.957 39.248,208.211 39.286 M205.955 39.454 C 206.250 39.490,206.775 39.491,207.121 39.455 C 207.467 39.419,207.225 39.389,206.583 39.388 C 205.942 39.387,205.659 39.417,205.955 39.454 M209.667 39.426 C 210.263 39.556,211.984 39.593,211.793 39.472 C 211.678 39.398,211.096 39.346,210.500 39.355 C 209.904 39.364,209.529 39.396,209.667 39.426 M203.583 39.833 C 203.159 40.016,203.597 40.016,204.167 39.833 C 204.502 39.726,204.518 39.699,204.250 39.695 C 204.067 39.692,203.767 39.755,203.583 39.833 M118.033 40.367 C 117.880 40.520,117.843 45.042,117.874 59.908 L 117.915 79.250 117.999 59.833 L 118.083 40.417 130.833 40.332 L 143.583 40.247 130.908 40.207 C 121.227 40.176,118.186 40.214,118.033 40.367 M49.492 41.283 C 49.679 41.671,50.291 42.167,50.579 42.166 C 50.673 42.165,50.543 42.028,50.289 41.861 C 50.036 41.693,49.713 41.413,49.572 41.237 C 49.326 40.930,49.322 40.932,49.492 41.283 M199.125 41.595 C 198.502 41.933,198.540 42.074,199.167 41.750 C 199.442 41.608,199.667 41.456,199.667 41.412 C 199.667 41.305,199.649 41.311,199.125 41.595 M52.667 41.833 C 52.438 42.013,52.313 42.161,52.390 42.163 C 52.468 42.165,52.721 42.017,52.955 41.833 C 53.188 41.650,53.312 41.502,53.231 41.504 C 53.150 41.506,52.896 41.654,52.667 41.833 M217.917 41.950 C 218.008 42.037,218.421 42.352,218.833 42.652 L 219.583 43.197 219.000 42.670 C 218.489 42.209,217.482 41.539,217.917 41.950 M51.125 42.284 C 51.331 42.324,51.669 42.324,51.875 42.284 C 52.081 42.245,51.913 42.212,51.500 42.212 C 51.087 42.212,50.919 42.245,51.125 42.284 M143.212 43.167 C 143.212 43.579,143.245 43.748,143.284 43.542 C 143.324 43.335,143.324 42.998,143.284 42.792 C 143.245 42.585,143.212 42.754,143.212 43.167 M196.949 43.089 C 196.692 43.315,196.548 43.500,196.628 43.500 C 196.709 43.500,196.951 43.313,197.167 43.083 C 197.665 42.553,197.555 42.556,196.949 43.089 M142.858 45.583 C 142.842 45.858,142.790 46.271,142.743 46.500 L 142.657 46.917 142.837 46.506 C 142.935 46.280,142.987 45.867,142.951 45.589 L 142.887 45.083 142.858 45.583 M206.833 46.333 L 206.417 46.467 206.833 46.467 C 207.063 46.467,207.438 46.407,207.667 46.333 L 208.083 46.200 207.667 46.200 C 207.438 46.200,207.063 46.260,206.833 46.333 M210.167 46.326 C 210.304 46.419,210.560 46.496,210.736 46.497 C 211.163 46.501,211.029 46.405,210.417 46.268 C 210.052 46.187,209.984 46.202,210.167 46.326 M217.246 47.875 L 215.917 49.250 217.292 47.921 C 218.569 46.686,218.743 46.500,218.621 46.500 C 218.596 46.500,217.977 47.119,217.246 47.875 M127.413 52.042 L 127.417 57.083 134.121 57.127 L 140.826 57.170 140.877 60.460 L 140.928 63.750 140.922 60.417 L 140.917 57.083 134.211 57.040 L 127.505 56.996 127.457 51.998 L 127.409 47.000 127.413 52.042 M213.000 47.241 C 213.000 47.287,213.225 47.441,213.500 47.583 C 213.775 47.726,214.000 47.804,214.000 47.759 C 214.000 47.713,213.775 47.559,213.500 47.417 C 213.225 47.274,213.000 47.196,213.000 47.241 M215.203 48.755 C 215.453 49.018,215.686 49.199,215.723 49.158 C 215.760 49.117,215.556 48.902,215.270 48.681 L 214.750 48.279 215.203 48.755 M243.963 48.456 C 244.355 48.491,244.955 48.490,245.296 48.454 C 245.637 48.419,245.317 48.390,244.583 48.390 C 243.850 48.391,243.571 48.420,243.963 48.456 M281.125 48.456 C 281.606 48.490,282.394 48.490,282.875 48.456 C 283.356 48.423,282.962 48.395,282.000 48.395 C 281.037 48.395,280.644 48.423,281.125 48.456 M332.208 48.615 C 332.369 48.657,332.631 48.657,332.792 48.615 C 332.952 48.573,332.821 48.539,332.500 48.539 C 332.179 48.539,332.048 48.573,332.208 48.615 M35.042 48.782 C 35.202 48.823,35.465 48.823,35.625 48.782 C 35.785 48.740,35.654 48.705,35.333 48.705 C 35.012 48.705,34.881 48.740,35.042 48.782 M247.833 48.731 C 247.833 48.767,248.054 48.828,248.325 48.868 C 248.595 48.907,248.778 48.878,248.731 48.803 C 248.649 48.670,247.833 48.604,247.833 48.731 M277.208 48.782 C 277.369 48.823,277.631 48.823,277.792 48.782 C 277.952 48.740,277.821 48.705,277.500 48.705 C 277.179 48.705,277.048 48.740,277.208 48.782 M285.667 48.732 C 285.667 48.769,285.960 48.826,286.319 48.861 C 286.678 48.895,286.936 48.865,286.893 48.795 C 286.814 48.667,285.667 48.608,285.667 48.732 M327.833 48.841 C 327.651 48.964,327.718 48.980,328.083 48.898 C 328.696 48.761,328.829 48.666,328.403 48.669 C 328.227 48.671,327.971 48.748,327.833 48.841 M33.075 49.708 L 32.417 50.416 33.083 49.834 C 33.450 49.513,33.821 49.194,33.908 49.125 C 34.007 49.047,34.004 49.000,33.900 49.000 C 33.809 49.000,33.438 49.319,33.075 49.708 M275.000 49.167 C 274.665 49.274,274.649 49.301,274.917 49.305 C 275.100 49.308,275.400 49.245,275.583 49.167 C 276.008 48.984,275.570 48.984,275.000 49.167 M202.000 49.833 C 201.804 50.108,201.681 50.333,201.727 50.333 C 201.773 50.333,201.971 50.108,202.167 49.833 C 202.362 49.558,202.485 49.333,202.439 49.333 C 202.394 49.333,202.196 49.558,202.000 49.833 M308.407 49.548 C 308.362 49.666,308.346 51.034,308.371 52.589 L 308.417 55.417 310.292 55.464 L 312.167 55.511 312.167 64.255 L 312.167 73.000 310.437 73.000 C 308.194 73.000,308.315 72.804,308.371 76.355 L 308.417 79.250 317.833 79.250 L 327.250 79.250 327.296 76.334 C 327.353 72.702,327.639 72.989,324.010 73.034 L 321.250 73.068 324.167 73.169 C 325.771 73.225,327.102 73.284,327.125 73.302 C 327.148 73.319,327.167 74.646,327.167 76.250 L 327.167 79.167 317.829 79.167 L 308.492 79.167 308.538 76.208 L 308.583 73.250 310.460 73.203 L 312.336 73.156 312.293 64.286 L 312.250 55.417 310.368 55.369 L 308.486 55.322 308.534 52.328 C 308.583 49.379,308.571 49.122,308.407 49.548 M319.135 49.583 C 319.219 49.767,319.330 50.029,319.381 50.167 C 319.461 50.383,319.475 50.381,319.487 50.157 C 319.494 50.014,319.383 49.751,319.241 49.574 C 318.986 49.255,318.984 49.255,319.135 49.583 M45.089 50.351 C 44.765 50.635,44.500 50.945,44.500 51.040 C 44.500 51.134,44.662 51.005,44.861 50.753 C 45.059 50.501,45.453 50.193,45.736 50.070 C 46.032 49.941,46.129 49.844,45.964 49.840 C 45.807 49.836,45.413 50.066,45.089 50.351 M47.583 50.027 C 47.767 50.129,48.108 50.370,48.341 50.564 C 48.574 50.758,48.519 50.673,48.218 50.375 C 47.918 50.077,47.577 49.836,47.461 49.838 C 47.345 49.841,47.400 49.926,47.583 50.027 M271.583 50.077 C 270.940 50.372,271.239 50.376,272.000 50.083 C 272.321 49.960,272.471 49.856,272.333 49.854 C 272.196 49.851,271.858 49.951,271.583 50.077 M270.330 50.587 C 270.214 50.727,270.167 50.890,270.226 50.948 C 270.285 51.007,270.333 50.966,270.333 50.856 C 270.333 50.746,270.502 50.588,270.708 50.505 C 270.962 50.403,270.996 50.351,270.812 50.344 C 270.663 50.338,270.446 50.448,270.330 50.587 M335.689 50.583 C 335.674 50.767,335.620 51.104,335.570 51.333 C 335.490 51.693,335.503 51.710,335.666 51.454 C 335.770 51.291,335.824 50.954,335.786 50.704 C 335.741 50.408,335.707 50.366,335.689 50.583 M319.602 51.250 C 319.739 51.863,319.834 51.996,319.831 51.569 C 319.829 51.394,319.752 51.137,319.659 51.000 C 319.536 50.817,319.520 50.885,319.602 51.250 M48.917 52.249 C 48.917 52.827,48.973 53.266,49.042 53.224 C 49.110 53.181,49.167 52.743,49.167 52.250 C 49.167 51.757,49.110 51.318,49.042 51.276 C 48.973 51.233,48.917 51.671,48.917 52.249 M291.833 51.219 C 291.833 51.248,292.077 51.491,292.375 51.760 L 292.917 52.250 292.427 51.708 C 291.971 51.203,291.833 51.090,291.833 51.219 M44.268 51.597 C 44.130 51.956,44.145 52.708,44.294 52.942 C 44.362 53.048,44.417 52.729,44.417 52.234 C 44.417 51.238,44.412 51.220,44.268 51.597 M254.000 51.719 C 254.000 51.748,254.244 51.991,254.542 52.260 L 255.083 52.750 254.594 52.208 C 254.138 51.703,254.000 51.590,254.000 51.719 M335.372 53.000 C 335.372 53.321,335.406 53.452,335.448 53.292 C 335.490 53.131,335.490 52.869,335.448 52.708 C 335.406 52.548,335.372 52.679,335.372 53.000 M320.003 53.097 C 320.004 53.273,320.081 53.529,320.174 53.667 C 320.298 53.849,320.313 53.782,320.232 53.417 C 320.095 52.804,319.999 52.671,320.003 53.097 M44.500 53.446 C 44.500 53.684,45.612 54.667,45.881 54.666 C 45.992 54.666,45.848 54.522,45.561 54.347 C 45.274 54.172,44.918 53.855,44.769 53.644 C 44.621 53.432,44.500 53.343,44.500 53.446 M48.479 53.777 C 48.353 53.929,48.025 54.192,47.750 54.360 C 47.475 54.528,47.316 54.666,47.397 54.666 C 47.663 54.667,48.632 53.998,48.728 53.747 C 48.852 53.423,48.762 53.434,48.479 53.777 M335.212 54.333 C 335.212 54.746,335.245 54.915,335.284 54.708 C 335.324 54.502,335.324 54.165,335.284 53.958 C 335.245 53.752,335.212 53.921,335.212 54.333 M200.091 55.591 C 200.027 56.016,200.009 56.398,200.051 56.440 C 200.092 56.481,200.179 56.168,200.242 55.742 C 200.306 55.317,200.324 54.935,200.283 54.894 C 200.241 54.852,200.155 55.166,200.091 55.591 M320.553 55.154 C 320.569 55.376,320.696 55.588,320.833 55.625 C 320.999 55.669,321.019 55.645,320.894 55.554 C 320.790 55.479,320.664 55.267,320.614 55.083 C 320.541 54.820,320.528 54.835,320.553 55.154 M190.447 55.585 C 190.386 55.951,190.345 56.475,190.355 56.750 C 190.366 57.025,190.440 56.800,190.520 56.250 C 190.683 55.131,190.619 54.544,190.447 55.585 M279.961 55.121 C 280.261 55.158,280.711 55.157,280.961 55.119 C 281.212 55.081,280.967 55.051,280.417 55.052 C 279.867 55.053,279.662 55.084,279.961 55.121 M278.042 55.286 C 278.294 55.324,278.706 55.324,278.958 55.286 C 279.210 55.248,279.004 55.217,278.500 55.217 C 277.996 55.217,277.790 55.248,278.042 55.286 M281.514 55.228 C 281.552 55.261,281.950 55.328,282.397 55.377 C 282.895 55.430,283.122 55.407,282.981 55.318 C 282.765 55.181,281.363 55.095,281.514 55.228 M35.042 55.615 C 35.202 55.657,35.465 55.657,35.625 55.615 C 35.785 55.573,35.654 55.539,35.333 55.539 C 35.012 55.539,34.881 55.573,35.042 55.615 M275.667 55.667 C 275.323 55.777,275.309 55.803,275.583 55.814 C 275.767 55.822,276.029 55.756,276.167 55.667 C 276.459 55.478,276.256 55.478,275.667 55.667 M272.043 56.333 C 272.127 56.641,272.640 56.760,272.875 56.525 C 272.995 56.405,272.932 56.382,272.674 56.450 C 272.446 56.509,272.236 56.457,272.137 56.316 C 272.002 56.123,271.986 56.126,272.043 56.333 M294.794 63.097 C 294.819 66.756,294.861 70.200,294.887 70.750 C 294.914 71.300,294.946 68.600,294.958 64.750 C 294.971 60.900,294.929 57.456,294.865 57.097 C 294.802 56.738,294.770 59.438,294.794 63.097 M327.667 56.674 C 327.484 56.798,327.552 56.813,327.917 56.732 C 328.529 56.595,328.663 56.499,328.236 56.503 C 328.060 56.504,327.804 56.581,327.667 56.674 M334.764 57.347 C 334.701 57.819,334.684 58.239,334.725 58.280 C 334.766 58.321,334.852 57.970,334.917 57.500 C 334.981 57.030,334.999 56.610,334.956 56.567 C 334.913 56.524,334.827 56.875,334.764 57.347 M206.446 56.943 C 206.292 57.097,206.325 58.174,206.496 58.583 C 206.580 58.786,206.599 58.540,206.544 57.958 L 206.453 57.000 213.646 57.000 L 220.839 57.000 220.794 66.742 C 220.770 72.100,220.807 76.427,220.876 76.357 C 220.946 76.287,220.983 71.885,220.960 66.574 L 220.917 56.917 213.738 56.873 C 209.790 56.849,206.508 56.881,206.446 56.943 M285.945 58.250 C 286.071 59.074,286.167 59.214,286.164 58.569 C 286.163 58.302,286.090 57.971,286.002 57.833 C 285.894 57.663,285.875 57.796,285.945 58.250 M257.857 58.431 C 257.955 58.790,258.073 59.121,258.120 59.167 C 258.267 59.310,257.973 58.092,257.822 57.931 C 257.743 57.847,257.759 58.072,257.857 58.431 M324.948 58.375 C 324.429 58.889,324.427 58.895,324.909 58.501 C 325.188 58.273,325.488 58.029,325.575 57.960 C 325.662 57.890,325.680 57.833,325.614 57.833 C 325.549 57.833,325.249 58.077,324.948 58.375 M156.533 58.200 C 156.309 58.425,156.238 64.921,156.458 65.058 C 156.527 65.100,156.583 63.586,156.583 61.693 L 156.583 58.250 167.167 58.165 L 177.750 58.080 167.242 58.040 C 159.246 58.010,156.686 58.048,156.533 58.200 M199.898 60.000 C 199.898 61.146,199.924 61.615,199.957 61.042 C 199.989 60.469,199.989 59.531,199.957 58.958 C 199.924 58.385,199.898 58.854,199.898 60.000 M177.968 61.537 C 178.009 64.153,177.972 64.918,177.802 65.038 C 177.631 65.158,177.638 65.177,177.833 65.124 C 178.110 65.049,178.305 58.884,178.045 58.419 C 177.975 58.293,177.940 59.695,177.968 61.537 M230.437 59.423 C 230.380 59.572,230.340 59.819,230.348 59.972 C 230.356 60.125,230.428 60.029,230.509 59.758 C 230.666 59.232,230.610 58.972,230.437 59.423 M249.529 59.417 C 249.524 59.600,249.581 60.050,249.657 60.417 C 249.773 60.977,249.795 61.004,249.794 60.583 C 249.794 60.000,249.545 58.904,249.529 59.417 M286.212 59.833 C 286.212 60.246,286.245 60.415,286.284 60.208 C 286.324 60.002,286.324 59.665,286.284 59.458 C 286.245 59.252,286.212 59.421,286.212 59.833 M258.278 60.417 C 258.405 61.241,258.501 61.381,258.497 60.736 C 258.496 60.469,258.423 60.137,258.336 60.000 C 258.227 59.830,258.209 59.963,258.278 60.417 M281.708 60.624 C 282.510 60.655,283.823 60.655,284.625 60.624 C 285.427 60.594,284.771 60.569,283.167 60.569 C 281.563 60.569,280.906 60.594,281.708 60.624 M334.286 61.121 L 334.164 61.825 331.290 61.875 L 328.417 61.925 331.296 61.963 L 334.175 62.000 334.345 61.553 C 334.439 61.307,334.491 60.950,334.461 60.761 C 334.429 60.558,334.357 60.707,334.286 61.121 M206.850 61.097 C 206.859 61.365,206.930 61.771,207.008 62.000 C 207.104 62.281,207.118 62.145,207.054 61.583 C 206.945 60.646,206.825 60.358,206.850 61.097 M230.113 61.034 C 230.062 61.244,229.982 62.354,229.935 63.500 L 229.850 65.583 230.066 63.167 C 230.281 60.759,230.291 60.307,230.113 61.034 M278.795 60.787 C 279.094 60.825,279.544 60.824,279.795 60.786 C 280.045 60.748,279.800 60.717,279.250 60.718 C 278.700 60.719,278.495 60.750,278.795 60.787 M276.333 61.167 C 275.998 61.274,275.982 61.301,276.250 61.305 C 276.433 61.308,276.733 61.245,276.917 61.167 C 277.341 60.984,276.903 60.984,276.333 61.167 M258.559 63.750 C 258.559 64.575,258.587 64.934,258.622 64.547 C 258.657 64.160,258.657 63.485,258.623 63.047 C 258.588 62.609,258.560 62.925,258.559 63.750 M190.353 63.264 C 190.364 63.715,190.431 64.308,190.502 64.583 C 190.578 64.876,190.595 64.566,190.543 63.833 C 190.441 62.400,190.324 62.049,190.353 63.264 M207.275 63.375 C 207.318 63.444,208.399 63.500,209.677 63.500 L 212.000 63.500 212.000 67.800 C 212.000 71.004,211.947 72.160,211.792 72.334 C 211.614 72.533,211.627 72.534,211.878 72.344 C 212.148 72.140,212.168 71.765,212.128 67.769 L 212.083 63.417 209.640 63.333 C 208.297 63.288,207.233 63.306,207.275 63.375 M200.010 64.014 C 200.015 64.327,200.085 64.883,200.166 65.250 C 200.279 65.762,200.291 65.647,200.219 64.750 C 200.120 63.508,199.994 63.066,200.010 64.014 M48.724 63.794 C 48.618 63.862,49.004 63.917,49.582 63.917 C 50.161 63.917,50.599 63.860,50.557 63.792 C 50.458 63.631,48.978 63.633,48.724 63.794 M270.237 64.375 C 269.531 65.127,268.750 66.088,269.187 65.667 C 269.691 65.181,271.045 63.667,270.974 63.667 C 270.935 63.667,270.603 63.985,270.237 64.375 M127.373 71.542 L 127.413 79.250 127.458 71.627 L 127.503 64.004 134.210 63.958 L 140.917 63.913 134.125 63.873 L 127.333 63.833 127.373 71.542 M47.250 65.333 C 47.187 65.530,47.174 65.729,47.220 65.775 C 47.265 65.821,47.354 65.697,47.417 65.500 C 47.479 65.303,47.493 65.104,47.447 65.058 C 47.401 65.012,47.313 65.136,47.250 65.333 M230.016 66.583 C 230.010 67.133,230.065 67.678,230.138 67.793 C 230.212 67.909,230.242 67.534,230.207 66.960 C 230.120 65.546,230.029 65.367,230.016 66.583 M281.961 65.954 C 282.261 65.991,282.711 65.990,282.961 65.952 C 283.212 65.914,282.967 65.884,282.417 65.885 C 281.867 65.886,281.662 65.917,281.961 65.954 M286.083 68.317 C 286.083 69.684,286.140 70.767,286.208 70.724 C 286.277 70.682,286.333 69.564,286.333 68.240 C 286.333 66.916,286.277 65.833,286.208 65.833 C 286.140 65.833,286.083 66.951,286.083 68.317 M47.238 66.750 C 47.304 67.025,47.429 67.323,47.516 67.413 C 47.604 67.502,47.588 67.315,47.480 66.996 C 47.227 66.250,47.085 66.105,47.238 66.750 M239.178 67.431 C 239.185 67.698,239.257 68.067,239.338 68.250 C 239.436 68.473,239.452 68.334,239.386 67.833 C 239.269 66.950,239.162 66.742,239.178 67.431 M48.126 68.125 C 48.342 68.331,48.608 68.498,48.718 68.495 C 48.827 68.492,48.767 68.407,48.583 68.305 C 48.400 68.203,48.134 68.037,47.992 67.935 C 47.850 67.833,47.910 67.919,48.126 68.125 M191.270 68.417 C 191.330 68.692,191.444 69.029,191.525 69.167 C 191.619 69.327,191.632 69.237,191.563 68.917 C 191.504 68.642,191.389 68.304,191.309 68.167 C 191.215 68.007,191.201 68.097,191.270 68.417 M49.377 68.620 C 49.631 68.658,50.006 68.657,50.211 68.617 C 50.416 68.578,50.208 68.546,49.750 68.548 C 49.292 68.549,49.124 68.581,49.377 68.620 M230.362 68.833 C 230.370 69.266,230.633 69.978,230.638 69.583 C 230.641 69.400,230.579 69.100,230.500 68.917 C 230.412 68.712,230.359 68.680,230.362 68.833 M267.774 69.292 C 267.647 70.057,267.668 71.908,267.811 72.574 C 267.869 72.844,267.917 72.075,267.917 70.866 C 267.917 68.413,267.917 68.421,267.774 69.292 M277.052 70.083 C 277.053 70.633,277.084 70.838,277.121 70.539 C 277.158 70.239,277.157 69.789,277.119 69.539 C 277.081 69.288,277.051 69.533,277.052 70.083 M192.095 70.833 C 192.155 71.063,192.271 71.321,192.352 71.408 C 192.590 71.663,192.517 71.298,192.237 70.833 L 191.986 70.417 192.095 70.833 M203.263 72.188 C 203.374 72.367,204.675 73.047,204.754 72.968 C 204.785 72.937,204.441 72.716,203.990 72.475 C 203.539 72.235,203.212 72.106,203.263 72.188 M97.750 72.667 C 97.807 72.758,97.947 72.833,98.062 72.833 C 98.360 72.833,99.092 73.661,99.314 74.250 L 99.502 74.750 99.412 74.250 C 99.322 73.754,98.189 72.500,97.830 72.500 C 97.729 72.500,97.693 72.575,97.750 72.667 M210.750 72.756 C 210.331 72.958,210.318 72.980,210.667 72.896 C 210.896 72.841,211.155 72.729,211.242 72.648 C 211.458 72.446,211.339 72.472,210.750 72.756 M250.708 72.672 C 250.150 72.896,250.255 73.010,250.833 72.808 C 251.108 72.712,251.333 72.604,251.333 72.567 C 251.333 72.468,251.130 72.502,250.708 72.672 M205.333 73.164 C 205.471 73.254,205.765 73.329,205.986 73.331 C 206.521 73.334,206.385 73.239,205.667 73.108 C 205.256 73.032,205.157 73.049,205.333 73.164 M209.000 73.167 C 208.423 73.288,208.422 73.290,208.917 73.309 C 209.192 73.320,209.529 73.256,209.667 73.167 C 209.944 72.987,209.852 72.987,209.000 73.167 M282.000 73.533 C 281.679 73.626,280.929 73.664,280.333 73.618 C 279.419 73.546,279.341 73.559,279.833 73.701 C 280.502 73.893,282.154 73.787,282.609 73.522 C 282.985 73.304,282.775 73.308,282.000 73.533 M245.629 73.622 C 246.021 73.657,246.621 73.657,246.963 73.621 C 247.304 73.585,246.983 73.557,246.250 73.557 C 245.517 73.558,245.237 73.587,245.629 73.622 M38.461 73.954 C 38.761 73.991,39.211 73.990,39.461 73.952 C 39.712 73.914,39.467 73.884,38.917 73.885 C 38.367 73.886,38.162 73.917,38.461 73.954 M94.542 74.917 C 94.544 75.283,94.578 75.414,94.618 75.206 C 94.658 74.999,94.656 74.699,94.615 74.540 C 94.573 74.380,94.540 74.550,94.542 74.917 M58.000 74.788 C 57.771 74.828,57.518 74.924,57.438 75.001 C 57.358 75.078,57.564 75.079,57.896 75.005 C 58.837 74.792,59.674 75.059,60.292 75.767 C 60.590 76.109,60.833 76.310,60.833 76.214 C 60.833 75.926,59.524 74.833,59.180 74.833 C 59.004 74.833,58.761 74.806,58.639 74.773 C 58.517 74.740,58.229 74.747,58.000 74.788 M195.018 75.458 C 195.421 75.894,196.012 76.470,196.333 76.738 C 196.654 77.007,196.356 76.651,195.671 75.947 C 194.296 74.534,193.866 74.213,195.018 75.458 M99.278 75.529 C 99.159 76.129,98.222 77.167,97.800 77.167 C 97.696 77.167,97.657 77.213,97.713 77.269 C 98.110 77.666,99.609 75.892,99.460 75.202 C 99.427 75.045,99.344 75.192,99.278 75.529 M56.579 75.604 C 55.968 76.263,55.808 78.092,56.333 78.417 C 56.418 78.469,56.405 78.279,56.306 77.994 C 56.035 77.215,56.233 76.206,56.768 75.648 C 57.021 75.383,57.174 75.167,57.107 75.167 C 57.039 75.167,56.802 75.363,56.579 75.604 M256.342 76.846 C 255.254 77.642,255.075 77.819,255.750 77.431 C 256.267 77.134,257.481 76.173,257.333 76.179 C 257.287 76.180,256.841 76.481,256.342 76.846 M60.879 77.333 C 60.879 77.746,60.911 77.915,60.951 77.708 C 60.991 77.502,60.991 77.165,60.951 76.958 C 60.911 76.752,60.879 76.921,60.879 77.333 M60.177 78.904 L 59.604 79.583 60.252 78.964 C 60.608 78.623,60.866 78.317,60.825 78.284 C 60.784 78.251,60.492 78.530,60.177 78.904 M56.653 78.894 C 56.875 79.167,57.500 79.580,57.500 79.454 C 57.500 79.422,57.256 79.218,56.958 78.999 C 56.623 78.754,56.507 78.714,56.653 78.894 M272.000 78.749 C 272.000 78.862,273.354 79.535,273.429 79.460 C 273.464 79.425,273.157 79.233,272.746 79.034 C 272.336 78.834,272.000 78.706,272.000 78.749 M295.333 78.709 C 295.333 78.733,295.260 79.009,295.170 79.323 C 295.080 79.637,295.070 79.824,295.148 79.739 C 295.318 79.553,295.543 78.667,295.420 78.667 C 295.372 78.667,295.333 78.686,295.333 78.709 M238.833 79.139 C 238.971 79.224,239.271 79.343,239.500 79.404 C 239.790 79.482,239.840 79.469,239.667 79.361 C 239.529 79.276,239.229 79.157,239.000 79.096 C 238.710 79.018,238.660 79.031,238.833 79.139 M251.708 79.186 C 251.410 79.272,251.167 79.380,251.167 79.425 C 251.167 79.546,252.058 79.314,252.242 79.145 C 252.423 78.979,252.429 78.978,251.708 79.186 M283.083 79.256 C 282.665 79.458,282.651 79.480,283.000 79.396 C 283.229 79.341,283.488 79.229,283.575 79.148 C 283.791 78.946,283.672 78.972,283.083 79.256 M83.312 79.444 C 83.103 79.698,83.119 79.703,83.500 79.505 C 84.059 79.214,84.101 79.167,83.798 79.167 C 83.657 79.167,83.438 79.291,83.312 79.444 M85.793 79.499 C 86.092 79.681,86.485 80.075,86.668 80.373 C 86.850 80.672,86.997 80.804,86.994 80.667 C 86.985 80.227,85.872 79.166,85.421 79.167 C 85.327 79.168,85.494 79.317,85.793 79.499 M101.491 79.792 L 100.917 80.417 101.581 79.833 C 101.947 79.512,102.278 79.231,102.318 79.208 C 102.357 79.185,102.316 79.167,102.227 79.167 C 102.138 79.167,101.807 79.448,101.491 79.792 M120.375 79.291 C 121.635 79.320,123.698 79.320,124.958 79.291 C 126.219 79.263,125.188 79.240,122.667 79.240 C 120.146 79.240,119.115 79.263,120.375 79.291 M213.750 79.333 C 213.540 79.424,213.509 79.477,213.667 79.477 C 213.804 79.477,214.067 79.412,214.250 79.333 C 214.460 79.243,214.491 79.190,214.333 79.190 C 214.196 79.190,213.933 79.255,213.750 79.333 M57.871 79.694 C 58.136 79.862,58.853 79.869,59.109 79.706 C 59.214 79.638,58.931 79.578,58.480 79.571 C 58.003 79.564,57.748 79.615,57.871 79.694 M212.333 79.667 L 211.750 79.789 212.282 79.811 C 212.574 79.823,212.860 79.758,212.917 79.667 C 212.973 79.575,212.996 79.510,212.968 79.522 C 212.940 79.534,212.654 79.599,212.333 79.667 M250.167 79.667 C 249.823 79.777,249.809 79.803,250.083 79.814 C 250.267 79.822,250.529 79.756,250.667 79.667 C 250.959 79.478,250.756 79.478,250.167 79.667 M69.089 80.517 C 68.765 80.802,68.500 81.118,68.500 81.221 C 68.500 81.324,68.621 81.234,68.769 81.023 C 68.918 80.811,69.274 80.495,69.561 80.320 C 69.848 80.145,69.992 80.001,69.881 80.001 C 69.769 80.000,69.413 80.233,69.089 80.517 M71.778 80.286 C 73.655 81.342,73.431 84.072,71.421 84.657 C 71.029 84.771,70.997 84.807,71.279 84.818 C 71.636 84.833,72.591 84.163,72.917 83.669 C 73.686 82.503,72.951 80.400,71.667 80.089 C 71.313 80.004,71.330 80.034,71.778 80.286 M205.000 80.196 C 205.412 80.258,206.463 80.309,207.333 80.309 C 208.204 80.309,209.254 80.258,209.667 80.196 C 210.080 80.134,209.032 80.083,207.333 80.083 C 205.635 80.083,204.587 80.134,205.000 80.196 M243.096 80.189 C 243.754 80.331,246.903 80.336,247.833 80.196 C 248.251 80.133,247.261 80.083,245.596 80.083 C 243.954 80.083,242.829 80.131,243.096 80.189 M275.926 80.189 C 276.196 80.247,277.054 80.294,277.833 80.294 C 278.612 80.294,279.471 80.247,279.741 80.189 C 280.010 80.131,279.152 80.083,277.833 80.083 C 276.515 80.083,275.656 80.131,275.926 80.189 M82.241 80.745 C 82.109 81.063,82.008 81.494,82.017 81.703 C 82.027 81.947,82.087 81.855,82.183 81.448 C 82.265 81.099,82.410 80.668,82.505 80.490 C 82.601 80.312,82.634 80.167,82.581 80.167 C 82.527 80.167,82.374 80.427,82.241 80.745 M87.019 81.447 C 87.009 81.739,86.925 82.175,86.834 82.415 C 86.732 82.685,86.729 82.814,86.827 82.754 C 87.032 82.627,87.222 81.628,87.118 81.225 C 87.071 81.043,87.031 81.133,87.019 81.447 M68.268 81.764 C 68.130 82.123,68.145 82.874,68.294 83.109 C 68.362 83.215,68.417 82.896,68.417 82.401 C 68.417 81.405,68.412 81.387,68.268 81.764 M49.833 82.000 C 49.503 82.106,49.486 82.133,49.750 82.133 C 49.933 82.133,50.271 82.073,50.500 82.000 C 50.830 81.894,50.847 81.867,50.583 81.867 C 50.400 81.867,50.063 81.927,49.833 82.000 M82.333 82.576 C 82.333 82.643,82.483 82.888,82.667 83.121 C 82.850 83.354,83.000 83.490,83.000 83.424 C 83.000 83.357,82.850 83.112,82.667 82.879 C 82.483 82.646,82.333 82.510,82.333 82.576 M68.641 83.782 C 68.839 84.156,69.141 84.415,69.250 84.306 C 69.283 84.272,69.116 84.059,68.878 83.831 C 68.479 83.449,68.461 83.445,68.641 83.782 M83.167 83.596 C 83.167 83.709,84.032 84.023,84.115 83.941 C 84.153 83.903,83.955 83.792,83.675 83.695 C 83.395 83.597,83.167 83.553,83.167 83.596 M47.271 84.688 C 47.132 85.382,47.267 85.517,47.417 84.833 C 47.480 84.545,47.497 84.275,47.455 84.232 C 47.412 84.190,47.329 84.395,47.271 84.688 M53.836 84.431 C 53.837 84.606,53.915 84.862,54.008 85.000 C 54.131 85.183,54.147 85.115,54.065 84.750 C 53.928 84.137,53.832 84.004,53.836 84.431 M101.000 84.219 C 101.000 84.248,101.244 84.491,101.542 84.760 L 102.083 85.250 101.594 84.708 C 101.138 84.203,101.000 84.090,101.000 84.219 M69.667 84.667 C 69.804 84.756,70.029 84.828,70.167 84.828 C 70.389 84.828,70.389 84.810,70.167 84.667 C 70.029 84.578,69.804 84.505,69.667 84.505 C 69.444 84.505,69.444 84.523,69.667 84.667 M103.583 85.500 L 102.917 85.619 103.500 85.631 C 103.821 85.638,104.233 85.579,104.417 85.500 C 104.809 85.331,104.526 85.331,103.583 85.500 M53.929 85.929 C 53.867 86.173,53.849 86.405,53.889 86.444 C 53.928 86.483,54.010 86.316,54.071 86.071 C 54.133 85.827,54.151 85.595,54.111 85.556 C 54.072 85.517,53.990 85.684,53.929 85.929 M50.208 88.619 C 50.460 88.658,50.873 88.658,51.125 88.619 C 51.377 88.581,51.171 88.550,50.667 88.550 C 50.163 88.550,49.956 88.581,50.208 88.619 M67.443 89.625 C 67.401 89.694,67.764 89.750,68.251 89.750 C 68.737 89.750,69.048 89.695,68.943 89.628 C 68.690 89.467,67.541 89.465,67.443 89.625 M90.709 91.750 C 90.711 92.117,90.745 92.247,90.785 92.040 C 90.824 91.832,90.823 91.532,90.781 91.373 C 90.739 91.214,90.707 91.383,90.709 91.750 M84.170 93.292 C 84.172 93.360,84.327 93.604,84.514 93.833 L 84.853 94.250 84.589 93.708 C 84.338 93.194,84.162 93.019,84.170 93.292 M65.333 94.885 C 65.333 94.914,65.577 95.158,65.875 95.427 L 66.417 95.917 65.927 95.375 C 65.471 94.870,65.333 94.757,65.333 94.885 M68.833 96.167 C 68.490 96.277,68.475 96.303,68.750 96.314 C 68.933 96.322,69.196 96.256,69.333 96.167 C 69.625 95.978,69.423 95.978,68.833 96.167 " stroke="none" fill="#ccbcc4" fill-rule="evenodd"></path><path id="path4" d="M72.417 12.286 C 68.096 13.329,69.225 19.395,73.618 18.736 C 76.931 18.239,77.322 13.653,74.149 12.493 C 73.249 12.165,73.028 12.138,72.417 12.286 M91.250 15.612 C 88.630 16.218,87.667 19.146,89.445 21.102 C 91.169 23.001,94.653 22.267,95.095 19.913 C 95.237 19.155,95.104 17.503,94.890 17.360 C 94.799 17.299,94.680 17.126,94.624 16.974 C 94.340 16.201,92.287 15.372,91.250 15.612 M53.250 18.109 C 52.452 18.529,51.691 19.341,51.572 19.900 C 51.511 20.184,51.391 20.504,51.305 20.611 C 50.823 21.211,52.082 23.512,53.220 24.108 C 54.835 24.953,57.442 23.834,57.778 22.150 C 57.832 21.880,57.942 21.619,58.022 21.570 C 58.211 21.453,58.209 20.713,58.019 20.595 C 57.938 20.545,57.824 20.255,57.767 19.951 C 57.665 19.405,56.831 18.481,56.044 18.041 C 55.524 17.751,53.854 17.792,53.250 18.109 M105.304 27.608 C 103.822 28.434,103.273 30.295,104.058 31.830 C 105.454 34.561,109.408 34.317,110.179 31.452 C 110.955 28.574,107.899 26.164,105.304 27.608 M39.694 31.364 C 37.865 32.327,37.278 34.426,38.351 36.170 C 40.508 39.675,45.749 36.509,43.989 32.764 C 43.264 31.221,41.226 30.557,39.694 31.364 M34.083 49.094 C 32.273 50.033,31.557 52.005,32.421 53.675 C 34.032 56.790,38.667 55.669,38.667 52.165 C 38.667 49.870,36.015 48.094,34.083 49.094 M37.750 67.381 C 36.002 68.400,35.380 69.380,35.553 70.842 C 36.044 74.985,42.167 74.798,42.167 70.640 C 42.167 68.409,39.439 66.396,37.750 67.381 M102.583 79.109 C 100.201 80.361,99.762 83.009,101.653 84.717 C 103.659 86.531,107.167 84.838,107.167 82.057 C 107.167 79.871,104.454 78.126,102.583 79.109 M49.695 82.161 C 47.185 82.776,46.613 86.190,48.732 87.905 C 49.593 88.602,51.489 88.740,52.407 88.173 C 53.444 87.532,54.364 85.680,53.992 84.984 C 53.905 84.822,53.833 84.556,53.833 84.395 C 53.833 83.010,51.458 81.728,49.695 82.161 M86.034 88.818 C 83.409 90.163,83.323 93.568,85.885 94.761 C 88.937 96.182,91.928 92.947,90.208 90.084 C 89.391 88.724,87.398 88.119,86.034 88.818 M66.940 89.901 C 65.160 90.563,64.308 92.658,65.151 94.298 C 66.826 97.555,71.500 96.540,71.500 92.920 C 71.500 90.693,69.093 89.100,66.940 89.901 " stroke="none" fill="#f48c8c" fill-rule="evenodd"></path></g></svg>