<?xml version="1.0" standalone="no"?>
<!DOCTYPE svg PUBLIC "-//W3C//DTD SVG 20010904//EN"
 "http://www.w3.org/TR/2001/REC-SVG-20010904/DTD/svg10.dtd">
<svg version="1.0" xmlns="http://www.w3.org/2000/svg"
 width="1500.000000pt" height="500.000000pt" viewBox="0 0 1500.000000 500.000000"
 preserveAspectRatio="xMidYMid meet">

<g transform="translate(0.000000,500.000000) scale(0.100000,-0.100000)"
fill="#000000" stroke="none">
<path d="M2693 4529 c-75 -22 -100 -128 -45 -190 21 -23 39 -32 73 -36 86 -10
147 48 136 129 -6 46 -29 75 -74 94 -36 16 -45 16 -90 3z"/>
<path d="M3371 4385 c-116 -99 14 -275 145 -195 98 61 47 220 -71 220 -32 0
-51 -7 -74 -25z"/>
<path d="M1994 4314 c-80 -39 -87 -158 -12 -204 85 -51 188 4 188 100 0 46
-27 90 -65 106 -43 18 -72 17 -111 -2z"/>
<path d="M2725 4135 c-16 -9 -33 -22 -37 -28 -12 -19 -9 -80 5 -98 51 -66 157
-32 157 51 0 65 -67 105 -125 75z"/>
<path d="M3264 4008 c-23 -11 -44 -48 -44 -78 0 -10 12 -32 26 -49 43 -52 120
-40 144 23 28 75 -51 141 -126 104z"/>
<path d="M3953 3964 c-33 -16 -63 -66 -63 -104 0 -62 61 -120 127 -120 38 0
50 5 79 34 28 28 34 42 34 76 0 52 -25 95 -66 115 -40 19 -71 19 -111 -1z"/>
<path d="M2254 3948 c-12 -5 -27 -21 -33 -34 -40 -88 57 -163 133 -103 21 16
26 29 26 64 0 35 -5 48 -26 64 -29 23 -66 26 -100 9z"/>
<path d="M1479 3815 c-31 -17 -59 -71 -59 -112 0 -34 30 -82 62 -99 51 -29
127 -5 164 51 26 40 14 112 -25 147 -36 32 -97 37 -142 13z"/>
<path d="M3665 3675 c-34 -33 -34 -93 -2 -123 35 -33 99 -30 126 4 30 38 27
80 -8 115 -38 37 -82 39 -116 4z"/>
<path d="M1871 3566 c-33 -35 -31 -93 4 -123 37 -32 80 -30 116 6 32 33 36 58
14 100 -25 49 -96 58 -134 17z"/>
<path d="M7642 3501 c-335 -83 -519 -381 -499 -806 13 -259 74 -422 207 -549
114 -109 250 -151 463 -144 151 6 258 33 387 97 l75 37 3 362 2 362 -268 0
-269 0 13 -92 c7 -51 13 -103 14 -115 0 -21 5 -22 93 -25 l92 -3 0 -170 0
-169 -50 -19 c-69 -26 -179 -25 -239 1 -125 56 -169 177 -169 472 -1 243 28
353 120 443 66 67 105 82 213 82 104 0 150 -15 226 -76 l38 -30 90 91 91 91
-40 35 c-59 51 -186 113 -263 129 -91 20 -240 18 -330 -4z"/>
<path d="M4430 2755 l0 -725 170 0 170 0 0 290 0 290 255 0 255 0 0 120 0 120
-252 2 -253 3 -3 193 -2 192 288 0 289 0 12 88 c6 48 14 102 17 120 l6 32
-476 0 -476 0 0 -725z"/>
<path d="M9028 3164 c-172 -41 -301 -166 -364 -349 -35 -104 -44 -273 -20
-385 46 -217 182 -362 391 -415 86 -22 263 -20 357 4 79 20 170 62 225 104
l33 24 -62 84 c-33 46 -62 86 -65 88 -2 3 -31 -9 -66 -26 -34 -17 -82 -36
-107 -43 -57 -15 -164 -16 -215 -2 -80 23 -141 97 -163 200 l-10 42 364 0 364
0 0 108 c0 133 -19 226 -66 320 -83 170 -247 263 -459 261 -44 0 -106 -7 -137
-15z m255 -237 c45 -34 75 -97 83 -175 l7 -62 -207 0 -206 0 0 24 c0 37 35
141 59 174 53 75 190 95 264 39z"/>
<path d="M10440 3173 c-118 -19 -262 -55 -289 -72 -11 -7 -8 -26 18 -102 17
-52 35 -99 39 -106 6 -9 22 -8 67 6 33 10 101 25 152 32 194 27 303 -27 307
-152 l1 -54 -160 -6 c-171 -6 -251 -22 -337 -65 -140 -71 -207 -203 -186 -366
14 -112 82 -204 187 -255 46 -22 74 -28 152 -31 52 -2 121 1 152 8 69 14 160
59 205 100 18 16 34 30 36 30 1 0 25 -22 53 -49 50 -48 100 -72 185 -87 l37
-6 34 109 34 108 -23 13 c-46 25 -48 40 -54 372 -5 296 -6 318 -27 362 -49
107 -148 177 -289 204 -69 13 -233 17 -294 7z m300 -728 c0 -92 -1 -95 -32
-131 -65 -73 -176 -103 -247 -66 -52 26 -73 61 -73 122 0 112 91 167 280 169
l72 1 0 -95z"/>
<path d="M12324 3170 c-106 -22 -206 -103 -265 -213 l-33 -62 -29 123 -29 122
-199 0 -199 0 0 -105 0 -104 73 -3 72 -3 3 -337 2 -338 -75 0 -75 0 0 -110 0
-110 348 0 349 0 0 110 0 109 -111 3 -111 3 0 165 0 165 37 77 c41 86 113 170
170 199 66 34 68 31 68 -81 l0 -100 105 0 c58 0 105 2 105 4 0 2 14 105 30
229 17 124 30 228 30 230 0 20 -203 41 -266 27z"/>
<path d="M1293 3163 c-12 -2 -36 -20 -53 -39 -93 -106 34 -260 151 -181 49 33
65 87 43 145 -13 35 -25 48 -58 63 -42 19 -45 19 -83 12z"/>
<path d="M1713 3120 c-12 -5 -29 -23 -38 -40 -46 -88 75 -172 141 -99 30 33
25 96 -9 125 -29 25 -57 29 -94 14z"/>
<path d="M5870 2685 l0 -125 400 0 400 0 0 125 0 125 -400 0 -400 0 0 -125z"/>
<path d="M1819 2595 c-67 -36 -51 -141 24 -159 31 -8 42 -6 65 11 55 41 51
118 -9 148 -34 18 -47 18 -80 0z"/>
<path d="M1404 2460 c-45 -23 -64 -53 -64 -105 0 -74 47 -120 121 -120 107 0
155 128 76 203 -44 41 -82 47 -133 22z"/>
<path d="M3604 2270 c-58 -23 -70 -95 -25 -141 33 -33 58 -36 101 -14 57 29
56 121 -1 150 -31 17 -44 18 -75 5z"/>
<path d="M2135 2165 c-56 -55 -16 -145 64 -145 31 0 44 6 60 26 67 85 -48 196
-124 119z"/>
<path d="M3832 2020 c-98 -60 -64 -220 48 -220 80 0 130 49 130 127 0 91 -98
142 -178 93z"/>
<path d="M3135 2018 c-32 -17 -45 -39 -45 -78 0 -51 30 -80 81 -80 94 0 124
115 42 158 -27 15 -52 15 -78 0z"/>
<path d="M2609 1985 c-50 -27 -56 -96 -13 -136 53 -49 144 -11 144 61 0 62
-76 106 -131 75z"/>
<path d="M1832 1900 c-60 -37 -68 -126 -16 -181 74 -77 204 -26 204 81 0 95
-105 151 -188 100z"/>
<path d="M3223 1659 c-50 -25 -78 -74 -67 -122 15 -68 53 -97 129 -97 35 0 49
6 74 30 99 100 -10 252 -136 189z"/>
<path d="M2492 1617 c-64 -36 -74 -121 -22 -181 36 -40 67 -50 119 -36 74 20
112 101 77 168 -29 55 -117 80 -174 49z"/>
</g>
</svg>
